<?xml version="1.0" encoding="utf-8"?>
<!-- Generator: Adobe Illustrator 27.0.1, SVG Export Plug-In . SVG Version: 6.00 Build 0)  -->
<svg version="1.1" xmlns="http://www.w3.org/2000/svg" xmlns:xlink="http://www.w3.org/1999/xlink" x="0px" y="0px"
	 viewBox="0 0 595.3 143.2" style="enable-background:new 0 0 595.3 143.2;" xml:space="preserve">
<style type="text/css">
	.st0{fill:#599191;}
	.st1{fill:#F15F61;}
	.st2{fill:#2F3C68;}
	.st3{fill:#496D54;}
	.st4{fill:#EDEDEE;}
	.st5{fill:#767679;}
	.st6{fill:#FFFFFF;}
	.st7{fill:#F15D60;}
	.st8{fill:#EB232C;}
	.st9{fill:#104879;}
	.st10{fill:#923033;}
	.st11{fill:#943134;}
	.st12{fill:#7E7F80;}
	.st13{fill:#1E4383;}
	.st14{fill:none;stroke:#1E4383;stroke-width:2;stroke-miterlimit:10;}
	.st15{fill:#1D4484;}
</style>
<g id="Layer_5">
</g>
<g id="Layer_1">
	<g>
		<rect x="42.4" y="42.5" class="st4" width="92.1" height="92.1"/>
	</g>
	<g>
		<path class="st5" d="M28.2,128.1l0.4,0.4c-1,1.1-1.9,2.7-1.9,4.5c0,1.9,0.8,3.4,1.9,4.5l-0.4,0.4c-1.2-1.4-2.2-2.8-2.2-5
			C26,130.9,27,129.5,28.2,128.1z"/>
		<path class="st5" d="M30.1,132.5l0.4,0l0,0.1c-0.1,0.5-0.3,1.3-0.3,1.9c-0.1,1.2,0.6,1.5,1.8,1.5c1.2,0,2.4-0.4,3-0.8
			c-0.1-0.9-0.3-1.8-0.5-3.1l0.6-0.4l0.1,0l0.1,0.9c0.1,0.5,0.2,0.8,0.4,1l0-0.3l1.5-1.7c0.6-0.7,1.1-1,2-1c1.5,0,2,1.3,2,2.2
			c0,1.1-0.7,1.9-3.3,1.9h-1.5c-0.4,0-0.8-0.1-1-0.3c0,0.2,0,0.4,0,0.5c0,0.3,0,0.8-0.5,1.2c-0.7,0.5-1.9,0.9-3.2,0.9
			c-1.3,0-2.2-0.6-2.1-2.1C29.7,134,29.9,133.1,30.1,132.5z M36.5,133.7H38c1.5,0,2.1-0.2,2.6-0.6c0-1-0.5-1.8-1.5-1.8
			c-0.5,0-0.8,0.1-1,0.2l-2,2.1C36.2,133.7,36.4,133.7,36.5,133.7z"/>
		<path class="st5" d="M42.8,132.9l-0.1-5.5l0.7-0.2v5.4c0,0.9,0.4,1.1,1,1.1h0.1c1.1,0,2-0.2,3.2-1l1-0.7l-2.2-0.8
			c-0.2-0.1-0.4-0.1-0.5-0.1c-0.1,0-0.2,0.1-0.3,0.2l-0.5,0.7h-0.1l-0.3-0.4l0.3-0.6c0.3-0.5,0.5-0.8,1-0.8c0.4,0,1.8,0.6,3.1,1
			c0.3,0.1,0.6,0.2,0.8,0.2l0.5,0.1l0,0.1l-0.3,0.7l-0.9-0.2l-1.6,1.1c-1.1,0.8-2.3,1.2-3.5,1.2h-0.1
			C43.3,134.6,42.8,134,42.8,132.9z M45.8,129v-0.2l0.3-0.7l0.9,0.4v0.1l-0.3,0.7L45.8,129z"/>
		<path class="st5" d="M54.2,135c0-0.7,0.3-1.6,0.4-2.2l0.4,0l0.1,0.1c-0.1,0.5-0.3,1.3-0.3,1.9c-0.1,1.2,0.6,1.5,1.8,1.5
			c1.3,0,2.4-0.5,2.9-0.8l-2.3-0.9l0-0.1l0.3-0.7h3.2c0.1,0,0.2,0.2,0.2,0.4c0,0.3-0.1,0.5-0.2,0.5h-1c-0.4,0-0.8-0.2-1.1-0.3l0,0
			c0.4,0.1,1,0.3,1.2,0.5c0.6,0.3,0.4,1-0.1,1.3c-0.6,0.4-1.7,0.9-3.3,0.9C55,137.1,54.1,136.5,54.2,135z"/>
		<path class="st5" d="M60.7,133.7h0.2c0.7,0,1-0.4,1.3-0.9l0.7-1.2c0.3-0.5,0.6-0.7,1.2-0.7c1.1,0,1.7,1.3,1.6,3.1l-0.4,0.7
			c-1.1,0-2.3-0.2-3.1-0.9c-0.3,0.4-0.6,0.7-1.3,0.7h-0.2c-0.1,0-0.2-0.2-0.2-0.5C60.5,133.9,60.6,133.7,60.7,133.7z M65.1,133.9
			c0-1.2-0.3-2.1-1.1-2.1c-0.2,0-0.4,0-0.6,0.1c-0.3,0.5-0.5,0.9-0.7,1.3C63.1,133.6,64.1,133.9,65.1,133.9z"/>
		<path class="st5" d="M69.6,134.6c-0.2,0-0.3,0-0.5,0c-1.2,0-1.8-0.6-1.8-1.8l-0.1-5.5l0.7-0.2v5.4c0,1,0.4,1.1,1.2,1.1h0.6
			c0.2-1.1,0.5-2.1,0.9-3.3l0.7-0.5l0.7,0.7c0.9,0.9,1,1.5,1,1.9c0,0.3,0,0.6-0.2,0.9c-0.4,0.6-1.1,1.1-2.4,1.2
			c0.1,0.7,0.6,1.4,1.2,2l0.7-1.2c0.6-1,1-1.6,2.1-1.6h0.3c0.1,0,0.2,0.2,0.2,0.4c0,0.3-0.1,0.5-0.2,0.5h-0.3
			c-0.9,0-1.1,0.4-1.6,1.2l-0.9,1.5H71C70.1,136.4,69.6,135.5,69.6,134.6z M72.3,132.8c0-0.4-0.5-1-1.2-1.9c-0.3,1-0.6,1.9-0.8,2.8
			C71.5,133.7,72.1,133.2,72.3,132.8z"/>
		<path class="st5" d="M74.3,134.2c0-0.2,0.1-0.4,0.2-0.4h0.4c0.9,0,1.3-0.2,1.5-0.9l0.4-1.1l0.1,0l0.4,0.2l-0.3,1l-0.1,0.3
			c0.2,0.3,0.7,0.5,1.4,0.5c1.1,0,1.4-0.3,1.4-0.9l0-0.7l0.6,0v1.4c0.2,0.1,0.6,0.2,0.9,0.2c0.3,0,0.5-0.1,0.7-0.2l-0.3-2.3l0.7-0.4
			l0.1,0c0.1,0.6,0.1,1.1,0.2,1.6c0.1,0.6,0.1,1.1-0.1,1.5c-0.2,0.5-0.8,0.8-1.4,0.8c-0.5,0-1-0.2-1.2-0.5c-0.3,0.3-0.9,0.5-1.5,0.5
			c-0.9,0-1.5-0.3-1.7-0.7c-0.3,0.5-0.9,0.7-1.6,0.7h-0.4C74.4,134.6,74.3,134.5,74.3,134.2z"/>
		<path class="st5" d="M84,138l-0.4-0.4c1-1.1,1.9-2.6,1.9-4.5c0-1.9-0.8-3.4-1.9-4.5l0.4-0.4c1.3,1.4,2.2,2.8,2.2,5
			C86.2,135.2,85.2,136.7,84,138z"/>
		<path class="st5" d="M89.5,136.7c0-1.2,0.9-2.4,3-3.5l0.8-0.5l-2.2-0.6c-0.2-0.1-0.4-0.1-0.5-0.1c-0.1,0-0.2,0.1-0.3,0.2l-0.5,0.7
			h-0.1l-0.4-0.4l0.3-0.6c0.3-0.5,0.5-0.8,0.9-0.8s1.7,0.5,3.5,0.9c0.6,0.1,0.8,0.2,1.1,0.2l0.1,0.1l-0.3,0.7l-0.7-0.1l-2,1.1
			c-0.5,0.3-0.9,0.5-1.2,0.8c-0.6,0.4-0.9,1-1.1,1.6c0.2,1.2,0.8,2.1,3.5,1.8l1.6-0.2l0.1,0.1L95,139l-1.6,0.2
			C90.6,139.4,89.5,138.3,89.5,136.7z M92.4,136.3v-0.2l0.3-0.7l0.9,0.4v0.1l-0.3,0.7L92.4,136.3z"/>
		<path class="st5" d="M95.1,137l-0.2-0.6l0-0.1c0.3,0.1,0.8,0.1,1.1,0.1c1.2-0.1,1.9-1.2,2-1.9c0-0.5-0.2-1.3-0.4-2.8l0.6-0.4
			l0.1,0.1c0.1,0.4,0.1,0.8,0.2,1.3c0.1,0.8,0.4,1.1,1.2,1.1h0.3c0.1,0,0.2,0.2,0.2,0.4c0,0.3-0.1,0.5-0.2,0.5h-0.3
			c-0.4,0-0.8-0.1-1-0.3v0.1c0,1.6-1.3,2.8-2.3,2.9C96.1,137.4,95.4,137.1,95.1,137z"/>
		<path class="st5" d="M99.9,134.2c0-0.2,0.1-0.4,0.2-0.4c1.1,0,2-0.2,2.4-0.6l-0.3-2.1l0.7-0.4l0.1,0c0.1,1,0.2,1.7,0.2,2.1
			c0,0.6-0.3,1-0.7,1.3c-0.6,0.4-1.6,0.5-2.4,0.5C100,134.6,99.9,134.5,99.9,134.2z M100.4,136.7v-0.2l0.3-0.7l0.9,0.4v0.1l-0.3,0.7
			L100.4,136.7z"/>
		<path class="st5" d="M105.3,137l-0.2-0.6l0-0.1c0.3,0.1,0.8,0.1,1.1,0.1c1.2-0.1,1.9-1.2,2-1.9c0-0.5-0.2-1.3-0.4-2.9l0.6-0.4
			l0.1,0.1c0.3,1.6,0.4,2.3,0.4,2.8c0,1.6-1.3,3-2.3,3C106.3,137.4,105.5,137.1,105.3,137z M107.3,130v-0.2l0.3-0.7l0.9,0.4v0.1
			l-0.3,0.7L107.3,130z"/>
		<path class="st5" d="M108.9,137l-0.2-0.6l0-0.1c0.3,0.1,0.8,0.1,1.1,0.1c1.2-0.1,1.9-1.2,2-1.9c0-0.5-0.2-1.3-0.4-2.8l0.6-0.4
			l0.1,0.1c0.1,0.4,0.1,0.8,0.2,1.3c0.1,0.8,0.4,1.1,1.2,1.1h0.3c0.1,0,0.2,0.2,0.2,0.4c0,0.3-0.1,0.5-0.2,0.5h-0.3
			c-0.4,0-0.8-0.1-1-0.3v0.1c0,1.6-1.3,2.8-2.3,2.9C109.9,137.4,109.1,137.1,108.9,137z"/>
		<path class="st5" d="M113.6,134.2c0-0.2,0.1-0.4,0.2-0.4h0.8c0.8,0,1.3-0.2,1.4-0.7l0.3-1.3l0.1-0.1l0.5,0.1l-0.2,1.1
			c-0.1,0.4,0.3,0.8,1,0.8h0.4c0.1,0,0.2,0.2,0.2,0.4c0,0.3-0.1,0.5-0.2,0.5h-0.4c-0.7,0-1.2-0.3-1.4-0.7c-0.4,0.6-0.9,0.7-1.7,0.7
			h-0.8C113.7,134.6,113.6,134.5,113.6,134.2z M114.2,136.7v-0.2l0.3-0.7l0.9,0.4v0.1l-0.3,0.7L114.2,136.7z"/>
		<path class="st5" d="M117.8,134.2c0-0.2,0.1-0.4,0.2-0.4h0.2c0.7,0,1.4-0.2,1.7-0.5l-0.1-5.9l0.7-0.2l0,5.6c0,1.2-1,1.7-2.3,1.8
			H118C117.9,134.6,117.8,134.5,117.8,134.2z"/>
		<path class="st5" d="M121.9,134.7c0.1-0.9,0.1-1.5,0.1-2.1l0-5.2l0.7-0.2v5.2c0,1-0.1,1.4-0.3,2.2L121.9,134.7L121.9,134.7z"/>
		<path class="st5" d="M126.1,132.9c0-0.2,0.1-0.6,0.1-1l0.1-0.7l0.4-0.1l0.1,0.1l-0.2,1.4c-0.1,0.7,0.1,1.3,2.3,1.3
			c2.7,0,3.6-0.2,3.7-0.9l0.2-1.3l0.1-0.1l0.5,0.1l-0.2,1.1c-0.1,0.4,0.3,0.8,1,0.8h0.4c0.1,0,0.2,0.2,0.2,0.4
			c0,0.3-0.1,0.5-0.2,0.5h-0.4c-0.7,0-1.2-0.3-1.4-0.7c-0.5,0.8-2.5,0.9-4.1,0.9C126.4,134.8,126,133.9,126.1,132.9z M128.3,130.5
			v-0.1l0.3-0.7l0.8,0.4v0.1l-0.3,0.7L128.3,130.5z M129.9,130.4v-0.1l0.3-0.7l0.8,0.4v0.1l-0.3,0.7L129.9,130.4z"/>
		<path class="st5" d="M134.4,134.2c0-0.2,0.1-0.4,0.2-0.4c2.2,0,3-0.2,3.5-0.6c-0.1-0.4-0.3-0.8-1.1-1.5l-2-2l0.2-1.1l4.4-1.3
			l0,0.7l-3.9,1.2l2.3,2.3c0.4,0.4,0.7,0.9,0.7,1.4c0,1.4-1.6,1.7-3.5,1.7c-0.2,0-0.4,0-0.6,0C134.5,134.6,134.4,134.5,134.4,134.2z
			"/>
		<path class="st5" d="M137.9,137l-0.2-0.6l0-0.1c0.3,0.1,0.8,0.1,1.1,0.1c1.2-0.1,1.9-1.2,2-1.9c0-0.5-0.2-1.3-0.4-2.8l0.6-0.4
			l0.1,0.1c0.1,0.4,0.1,0.8,0.2,1.3c0.1,0.8,0.4,1.1,1.2,1.1h0.3c0.1,0,0.2,0.2,0.2,0.4c0,0.3-0.1,0.5-0.2,0.5h-0.3
			c-0.4,0-0.8-0.1-1-0.3v0.1c0,1.6-1.3,2.8-2.3,2.9C138.9,137.4,138.2,137.1,137.9,137z"/>
		<path class="st5" d="M142.7,134.2c0-0.2,0.1-0.4,0.2-0.4h0.4c0.9,0,1.3-0.2,1.5-0.9l0.4-1.1l0.1,0l0.4,0.2l-0.3,1l-0.1,0.3
			c0.2,0.3,0.7,0.5,1.4,0.5c1.1,0,1.4-0.3,1.4-0.9l0-0.7l0.6,0v1.4c0.2,0.1,0.6,0.2,0.9,0.2c0.3,0,0.5-0.1,0.7-0.2l-0.3-2.3l0.7-0.4
			l0.1,0c0.1,0.6,0.1,1.1,0.2,1.6c0.1,0.6,0.1,1.1-0.1,1.5c-0.2,0.5-0.8,0.8-1.4,0.8c-0.5,0-1-0.2-1.2-0.5c-0.3,0.3-0.9,0.5-1.5,0.5
			c-0.9,0-1.5-0.3-1.7-0.7c-0.3,0.5-0.9,0.7-1.6,0.7h-0.4C142.8,134.6,142.7,134.5,142.7,134.2z M146.7,130.3v-0.1l0.3-0.7l0.8,0.4
			v0.1l-0.3,0.7L146.7,130.3z M147.3,129.1v-0.1l0.3-0.7l0.8,0.4v0.1l-0.3,0.7L147.3,129.1z M148.4,130.2v-0.1l0.3-0.7l0.8,0.4v0.1
			l-0.3,0.7L148.4,130.2z"/>
	</g>
	<g>
		<g>
			<rect x="87.5" y="79.2" class="st0" width="7.5" height="28.1"/>
		</g>
		<g>
			<rect x="143.4" y="69.1" class="st0" width="7.5" height="38.2"/>
		</g>
		<g>
			<path class="st0" d="M137.1,69.1h-7.5v21.1c0,1.5-1.2,2.8-2.7,2.8h-4.3v-14h-13.8c-4.2,0-7.6,3.5-7.6,7.8v20.5h7.5V86.2
				c0-1.5,1.2-2.7,2.6-2.7h4.1V98h12.2c5.2,0,9.4-4.3,9.4-9.6V69.1z"/>
		</g>
		<g>
			<path class="st0" d="M74.9,79.1H60.6c-4.4,0-7.9,3.6-7.9,7.9v20.3h7.5V86.4c0-1.5,1.2-2.7,2.7-2.7h4.6V98h7.5"/>
		</g>
		<g>
			<circle class="st1" cx="90.7" cy="71.9" r="3.9"/>
		</g>
		<g>
			<circle class="st0" cx="70.8" cy="104.5" r="4.1"/>
		</g>
		<g>
			<circle class="st0" cx="40.5" cy="105" r="4.3"/>
		</g>
		<g>
			<circle class="st0" cx="119.2" cy="104.5" r="3.9"/>
		</g>
		<g>
			<path class="st0" d="M33.6,107.3l0-14.2h12.8l0-12.1c0-5.7-4.6-10.2-10.2-10.2h-10L26.1,79h12c1.6,0,3,0.4,3,2.1v4.7H26.1v21.6
				H33.6"/>
		</g>
	</g>
</g>
<g id="Layer_4">
</g>
<g id="Layer_3">
</g>
</svg>
