<?xml version="1.0" encoding="utf-8"?>
<!-- Generator: Adobe Illustrator 27.0.1, SVG Export Plug-In . SVG Version: 6.00 Build 0)  -->
<svg version="1.1" xmlns="http://www.w3.org/2000/svg" xmlns:xlink="http://www.w3.org/1999/xlink" x="0px" y="0px"
	 viewBox="0 0 595.3 72.8" style="enable-background:new 0 0 595.3 72.8;" xml:space="preserve">
<style type="text/css">
	.st0{fill:#599191;}
	.st1{fill:#F15F61;}
	.st2{fill:#2F3C68;}
	.st3{fill:#496D54;}
	.st4{fill:#EDEDEE;}
	.st5{fill:#767679;}
	.st6{fill:#FFFFFF;}
	.st7{fill:#F15D60;}
	.st8{fill:#EB232C;}
	.st9{fill:#104879;}
	.st10{fill:#923033;}
	.st11{fill:#943134;}
	.st12{fill:#7E7F80;}
	.st13{fill:#1E4383;}
	.st14{fill:none;stroke:#1E4383;stroke-width:2;stroke-miterlimit:10;}
	.st15{fill:#1D4484;}
</style>
<g id="Layer_5">
</g>
<g id="Layer_1">
</g>
<g id="Layer_4">
	<g>
		<g>
			<g>
				<g>
					<rect x="405.6" y="3.7" width="0.5" height="11.9"/>
				</g>
			</g>
			<g>
				<g>
					<rect x="265" y="3.7" width="0.5" height="11.9"/>
				</g>
			</g>
			<g>
				<path d="M279,13.3h-0.7l-1.5-5.6l-1.6,5.6h-0.7L272.8,7h0.6l1.4,5.8l1.6-5.7h0.8l1.5,5.7l1.5-5.8h0.6L279,13.3z"/>
				<path d="M287.5,13.3h-0.7l-1.5-5.6l-1.6,5.6h-0.7L281.3,7h0.6l1.4,5.8l1.6-5.7h0.8l1.5,5.7l1.5-5.8h0.6L287.5,13.3z"/>
				<path d="M296,13.3h-0.7l-1.5-5.6l-1.6,5.6h-0.7L289.8,7h0.6l1.4,5.8l1.6-5.7h0.8l1.5,5.7l1.5-5.8h0.6L296,13.3z"/>
				<path d="M299.3,12.9c0,0.3-0.2,0.4-0.4,0.4c-0.3,0-0.4-0.2-0.4-0.4c0-0.2,0.2-0.4,0.4-0.4C299.1,12.5,299.3,12.7,299.3,12.9z"/>
				<path d="M306.4,10.1c0,1.9-1.1,3.3-2.9,3.3c-1.8,0-2.9-1.4-2.9-3.3c0-1.9,1.1-3.3,2.9-3.3C305.3,6.9,306.4,8.2,306.4,10.1z
					 M305.7,10.1c0-1.8-0.9-2.8-2.3-2.8c-1.3,0-2.3,1-2.3,2.8c0,1.8,0.9,2.8,2.3,2.8C304.8,12.9,305.7,11.9,305.7,10.1z"/>
				<path d="M312.2,13.3h-0.6c-0.2-0.4-0.3-0.8-0.4-1.6c-0.1-0.7-0.4-1.2-1-1.2c-0.2,0-0.3,0-0.5,0h-1.3v2.8h-0.6V7h1.8
					c0.3,0,0.6,0,0.9,0c0.9,0.1,1.5,0.6,1.5,1.6c0,0.8-0.5,1.3-1.2,1.5c0.5,0.2,0.8,0.8,0.9,1.4C311.9,12.4,312,12.9,312.2,13.3z
					 M309.7,9.9c0.3,0,0.4,0,0.6,0c0.7-0.1,1.1-0.5,1.1-1.2s-0.4-1.1-1.1-1.2c-0.2,0-0.4,0-0.7,0h-1.3v2.5H309.7z"/>
				<path d="M313.6,13.3V7h0.6v6.3H313.6z"/>
				<path d="M320.1,13.3H316V7h4v0.5h-3.4v2.4h3.2v0.5h-3.2v2.4h3.5V13.3z"/>
				<path d="M325.3,13.3l-3.3-5.7c0,0.8,0,1.7,0,2.5v3.2h-0.6V7h0.9l3.3,5.7c0-0.8,0-1.7,0-2.5V7h0.6l0,6.3H325.3z"/>
				<path d="M330.3,7.4v5.8h-0.6V7.4h-2.3V7h5.2v0.5H330.3z"/>
				<path d="M333.2,10.9v-0.4h1.9v0.4H333.2z"/>
				<path d="M341.4,13.3h-0.6v-2.8h-3.7v2.8h-0.6V7h0.6v3h3.7V7h0.6V13.3z"/>
				<path d="M348.6,10.1c0,1.9-1.1,3.3-2.9,3.3c-1.8,0-2.9-1.4-2.9-3.3c0-1.9,1.1-3.3,2.9-3.3C347.5,6.9,348.6,8.2,348.6,10.1z
					 M348,10.1c0-1.8-0.9-2.8-2.3-2.8c-1.3,0-2.3,1-2.3,2.8c0,1.8,0.9,2.8,2.3,2.8C347,12.9,348,11.9,348,10.1z"/>
				<path d="M354.2,13.3h-4.1V7h0.6v5.8h3.5V13.3z"/>
				<path d="M360.6,10.1c0,2-1.2,3-2.5,3.2c-0.3,0-0.5,0-0.8,0h-1.8V7h1.9c0.3,0,0.5,0,0.8,0C359.4,7.2,360.6,8.1,360.6,10.1z
					 M360,10.1c0-1.6-0.9-2.4-1.9-2.6c-0.2,0-0.4,0-0.7,0h-1.3v5.3h1.2c0.3,0,0.5,0,0.8,0C359.1,12.6,360,11.7,360,10.1z"/>
				<path d="M362.1,13.3V7h0.6v6.3H362.1z"/>
				<path d="M368.3,13.3l-3.3-5.7c0,0.8,0,1.7,0,2.5v3.2h-0.6V7h0.9l3.3,5.7c0-0.8,0-1.7,0-2.5V7h0.6l0,6.3H368.3z"/>
				<path d="M376,10.3v2.9h-0.5V12l-0.2,0.6c-0.4,0.6-1.1,0.9-1.8,0.9c-1.7,0-2.8-1.3-2.8-3.2c0-1.9,1.2-3.3,2.9-3.3
					c1.5,0,2.3,0.9,2.5,2.1l0,0.1h-0.6l0-0.1c-0.2-1-0.8-1.6-1.9-1.6c-1.3,0-2.3,1.1-2.3,2.8c0,1.7,0.9,2.8,2.2,2.8c1,0,2-0.7,2-2.1
					h-1.7v-0.5H376z"/>
				<path d="M378,12.9c0,0.3-0.2,0.4-0.4,0.4c-0.3,0-0.4-0.2-0.4-0.4c0-0.2,0.2-0.4,0.4-0.4C377.9,12.5,378,12.7,378,12.9z"/>
				<path d="M384.7,8.9L384.7,8.9L384.2,9l0-0.1c-0.2-1-0.8-1.6-1.9-1.6c-1.3,0-2.3,1.1-2.3,2.8c0,1.7,0.9,2.8,2.2,2.8
					c1.2,0,1.8-0.7,2-1.7l0-0.1h0.6l0,0.1c-0.2,1.2-1,2.1-2.6,2.1c-1.7,0-2.8-1.3-2.8-3.2c0-1.9,1.2-3.3,2.9-3.3
					C383.7,6.9,384.6,7.7,384.7,8.9z"/>
				<path d="M391.7,10.1c0,1.9-1.1,3.3-2.9,3.3c-1.8,0-2.9-1.4-2.9-3.3c0-1.9,1.1-3.3,2.9-3.3C390.6,6.9,391.7,8.2,391.7,10.1z
					 M391.1,10.1c0-1.8-0.9-2.8-2.3-2.8c-1.3,0-2.3,1-2.3,2.8c0,1.8,0.9,2.8,2.3,2.8C390.1,12.9,391.1,11.9,391.1,10.1z"/>
				<path d="M399.3,13.3h-0.6V9.9c0-0.8,0-1.7,0-2.4c-0.2,0.7-0.6,1.6-0.9,2.4l-1.3,3.4h-0.7l-1.3-3.4c-0.3-0.8-0.6-1.6-0.8-2.4
					c0,0.7,0,1.6,0,2.4v3.4h-0.6V7h0.9l2.1,5.8l2.1-5.8h0.9V13.3z"/>
			</g>
			<g>
				<path d="M416.5,10.1c0,1.9-0.6,3.3-2.2,3.3c-1.6,0-2.2-1.4-2.2-3.3c0-1.9,0.6-3.3,2.2-3.3C416,6.9,416.5,8.3,416.5,10.1z
					 M415.9,10.1c0-1.7-0.4-2.8-1.6-2.8c-1.1,0-1.6,1.1-1.6,2.8c0,1.7,0.4,2.8,1.6,2.8C415.5,12.9,415.9,11.8,415.9,10.1z"/>
				<path d="M421.5,12.8v0.5h-4.1v-0.3l2.2-2.2c0.9-0.9,1.3-1.4,1.3-2.1c0-0.7-0.4-1.3-1.3-1.3c-0.9,0-1.4,0.6-1.5,1.5l0,0.1h-0.6
					l0-0.1c0.1-1.2,0.9-2,2.1-2c1.2,0,1.8,0.8,1.8,1.7c0,0.8-0.5,1.5-1.6,2.5l-1.7,1.7H421.5z"/>
				<path d="M425.5,13.3h-0.6V7.6l-1.7,1.1V8l1.4-0.9C424.8,7,425,7,425.1,7h0.4V13.3z"/>
				<path d="M434,11.6c0,1.3-1.1,1.8-2.2,1.8c-1.2,0-2.2-0.6-2.2-1.8c0-0.8,0.6-1.4,1.3-1.6c-0.6-0.2-1-0.7-1-1.4
					c0-1,0.7-1.7,1.9-1.7c1.2,0,1.9,0.7,1.9,1.7c0,0.7-0.5,1.2-1.1,1.4C433.5,10.2,434,10.8,434,11.6z M433.4,11.6
					c0-0.7-0.5-1.4-1.5-1.4c-1.1,0-1.6,0.6-1.6,1.4c0,0.9,0.6,1.4,1.6,1.4C432.8,12.9,433.4,12.4,433.4,11.6z M431.9,9.8
					c0.8,0,1.3-0.5,1.3-1.2c0-0.7-0.5-1.2-1.3-1.2c-0.9,0-1.3,0.5-1.3,1.2C430.6,9.3,431.1,9.8,431.9,9.8z"/>
				<path d="M439.5,9.8c0,2.5-1,3.6-2.3,3.6c-1.1,0-1.7-0.6-1.9-1.7l0-0.1h0.6l0,0.1c0.2,0.8,0.6,1.2,1.3,1.2c0.9,0,1.6-0.7,1.7-2.9
					l-0.3,0.5c-0.4,0.4-0.8,0.6-1.4,0.6c-1.3,0-2-0.9-2-2.1c0-1.3,0.9-2.2,2.2-2.2C438.7,6.9,439.5,7.7,439.5,9.8z M438.8,9.1
					c0-1-0.6-1.7-1.5-1.7c-0.9,0-1.5,0.7-1.5,1.7c0,1,0.5,1.8,1.5,1.8C438.1,10.7,438.8,10.1,438.8,9.1z"/>
				<path d="M444.9,12.8v0.5h-4.1v-0.3l2.2-2.2c0.9-0.9,1.3-1.4,1.3-2.1c0-0.7-0.4-1.3-1.3-1.3c-0.9,0-1.4,0.6-1.5,1.5l0,0.1h-0.6
					l0-0.1c0.1-1.2,0.9-2,2.1-2c1.2,0,1.8,0.8,1.8,1.7c0,0.8-0.5,1.5-1.6,2.5l-1.7,1.7H444.9z"/>
				<path d="M450.4,9.8c0,2.5-1,3.6-2.3,3.6c-1.1,0-1.7-0.6-1.9-1.7l0-0.1h0.6l0,0.1c0.2,0.8,0.6,1.2,1.3,1.2c0.9,0,1.6-0.7,1.7-2.9
					l-0.3,0.5c-0.4,0.4-0.8,0.6-1.4,0.6c-1.3,0-2-0.9-2-2.1c0-1.3,0.9-2.2,2.2-2.2C449.6,6.9,450.4,7.7,450.4,9.8z M449.8,9.1
					c0-1-0.6-1.7-1.5-1.7c-0.9,0-1.5,0.7-1.5,1.7c0,1,0.5,1.8,1.5,1.8C449.1,10.7,449.8,10.1,449.8,9.1z"/>
			</g>
		</g>
		<g>
			<g>
				<path class="st2" d="M194.6,2.7v6.7h-2.3V2.7c-3.2,0.5-5.7,3.4-5.7,6.8c0,3.8,3.1,6.9,6.9,6.9c3.8,0,6.9-3.1,6.9-6.9
					C200.4,6.1,197.9,3.2,194.6,2.7z M193.5,15.2c-3.2,0-5.8-2.6-5.8-5.8c0-2.3,1.4-4.3,3.4-5.2v2.5c-0.8,0.7-1.2,1.7-1.2,2.7
					c0,2,1.6,3.6,3.6,3.6s3.6-1.6,3.6-3.6c0-1-0.4-2-1.1-2.6V4.3c1.9,0.9,3.3,2.9,3.3,5.2C199.2,12.7,196.7,15.2,193.5,15.2z"/>
			</g>
		</g>
		<g>
			<g>
				<path class="st8" d="M151,2.6c1.6,0,3.1,0.6,4.3,1.5l-2-0.1l-1.3,1.7l-3.2,0L147.3,7c-0.4,0.4-0.1,1,0.4,1l2.3,0l-3,4.2
					c-0.7,1.4-0.7,2.4,0.1,3c-1.8-1.2-3.1-3.3-3.1-5.7C144.1,5.7,147.2,2.6,151,2.6z"/>
			</g>
			<g>
				<path class="st8" d="M157.9,9.5c0,3.8-3.1,6.9-6.9,6.9c-1.3,0-2.6-0.4-3.6-1c0.7,0.4,1.6,0.4,2.5,0c1.5-0.6,3-1.6,4.2-3
					c0.3-0.5,0.1-1.1-0.8-0.7l-2.7,1.5c-1,0.4-1.6-0.5-1.1-1.4L152,8h2.3l1.5-1.7c0.2-0.2,0-0.5-0.2-0.5h-1.4l1.2-1.6
					C156.8,5.4,157.9,7.3,157.9,9.5z"/>
			</g>
		</g>
		<g>
			<g>
				<path class="st0" d="M214.5,4.2l-1.7,0.1l0,8.3h-0.1l-5.3-8.4h-1.9l0.1,7.9l-0.1,3.3h1.6l-0.1-3.7l0-4.6h0.1l5.3,8.4h1.9
					l-0.1-3.3L214.5,4.2z"/>
			</g>
			<g>
				<path class="st0" d="M219.1,7.4l-1.7,0.2l0.1,4.5l-0.1,3.4h1.7l-0.1-3.5L219.1,7.4z M218.2,3.7c-0.6,0-1,0.4-1,1
					c0,0.6,0.3,1,1,1c0.6,0,1-0.4,1-1C219.1,4,218.8,3.7,218.2,3.7z"/>
			</g>
			<g>
				<path class="st1" d="M219.1,4.6c0,0.6-0.4,1-1,1c-0.6,0-1-0.4-1-1c0-0.6,0.4-1,1-1C218.8,3.7,219.1,4,219.1,4.6z"/>
			</g>
		</g>
		<g>
			<g>
				<path class="st9" d="M170.8,6.4h8.2V3.2h-3.8c-0.6,0.1-1.2,0.2-1.8,0.4c-3.7,1-6.7,3.1-8.7,6l0,2.8c0.3,2,1.6,3.4,3.7,3.4H179V8
					h-7.1v2.6h3.2v1.9h-4.3c-0.6,0-1-0.4-1-1V7.4C169.8,6.9,170.2,6.4,170.8,6.4 M178,13.4h0.5v1.3H178V13.4z M176.3,13.4h1.6v0.3
					h-0.5v1h-0.5v-1h-0.5V13.4z M174.6,13.4h1.6v0.3h-0.5v1h-0.5v-1h-0.5V13.4z M173,13.4h1.4v0.3h-0.9V14h0.9v0.2h-0.9v0.3h0.9v0.3
					H173V13.4z M171.4,13.4h0.5v1h0.8v0.3h-1.4V13.4z M169.9,13.4h0.5v1h0.8v0.3h-1.4V13.4z M166.8,14.5c0.3,0,0.3,0,0.3-0.2h-0.4
					V14h0.9v0.2c0,0.4-0.2,0.5-0.9,0.5c-0.6,0-0.9-0.1-0.9-0.5v-0.3c0-0.4,0.4-0.5,0.9-0.5c0.5,0,0.9,0,0.9,0.4h-0.5
					c0-0.1-0.2-0.1-0.3-0.1c-0.4,0-0.4,0.1-0.4,0.3v0.2C166.4,14.5,166.5,14.5,166.8,14.5 M169.2,14.8l-0.1-0.2h-0.7l-0.1,0.2h-0.6
					l0.6-1.3h0.8l0.6,1.3H169.2z"/>
			</g>
			<g>
				<polygon class="st9" points="168.7,13.7 168.5,14.3 169,14.3 168.7,13.7 				"/>
			</g>
			<g>
				<g>
					<path class="st9" d="M173,3.6c0.6-0.2,1.2-0.3,1.9-0.4h-7c-1.8,0-2.9,1.3-3.2,3v2.9C166.7,6.5,169.5,4.5,173,3.6"/>
				</g>
				<g>
					<path class="st9" d="M180.1,13.9c0.4,0,0.5,0.1,0.5,0.5v0.9c0,0.4-0.2,0.6-0.5,0.6h-0.1c-0.3,0-0.5-0.1-0.5-0.6v-0.8
						c0-0.3,0.1-0.6,0.4-0.6h0v0.2c-0.3,0-0.3,0.1-0.3,0.6v0.5c0,0.2,0.1,0.4,0.3,0.4h0.3c0.2,0,0.3-0.2,0.3-0.4v-0.8
						c0-0.2-0.1-0.3-0.3-0.3v0.8H180L180.1,13.9L180.1,13.9z"/>
				</g>
				<g>
					<path class="st9" d="M179.9,8.7c-0.2,0-0.3,0.2-0.3,0.4v0.9c0,0.2,0.1,0.4,0.3,0.4h0.3c0.2,0,0.3-0.2,0.3-0.4V9.1
						c0-0.2-0.1-0.4-0.3-0.4H179.9z M179.9,10.5c-0.3,0-0.5-0.1-0.5-0.6V9c0-0.4,0.2-0.6,0.5-0.6h0.1c0.3,0,0.5,0.1,0.5,0.6v0.9
						c0,0.4-0.2,0.6-0.5,0.6H179.9z"/>
				</g>
				<g>
					<path class="st9" d="M179.5,7.6V7.4h0.8c0.1,0,0.2-0.1,0.2-0.3V6.4c0-0.3-0.1-0.3-0.2-0.3h-0.8V5.8h0.8c0.3,0,0.4,0.2,0.4,0.6
						v0.7c0,0.4-0.1,0.6-0.4,0.6H179.5z"/>
				</g>
				<g>
					<path class="st9" d="M180.4,11.5h0.2v-0.2h-0.2c-0.1,0-0.2,0.1-0.3,0.3h0c0-0.2-0.1-0.3-0.3-0.3c-0.2,0-0.4,0.1-0.4,0.5V13h1.1
						v-0.2h-0.4v-1C180.2,11.6,180.2,11.5,180.4,11.5 M179.6,12.8v-1c0-0.3,0-0.4,0.2-0.4c0.1,0,0.2,0.1,0.2,0.3v1H179.6z"/>
				</g>
				<g>
					<path class="st9" d="M180.2,4.7v-1c0-0.4-0.1-0.5-0.4-0.5c-0.2,0-0.3,0.2-0.3,0.4v1.3h1.1V4.7H180.2z M179.6,4.7v-1
						c0-0.2,0-0.3,0.2-0.3h0c0.1,0,0.2,0.1,0.2,0.3v1H179.6z"/>
				</g>
			</g>
		</g>
		<g>
			<g>
				<path class="st11" d="M235.4,5.6c-2.3-1.1-4.4-0.9-6.3,0.8c-1.7,1.8-2,3.9-0.9,6.2c-0.8-0.5-1.4-1.2-1.9-2
					c-0.4-0.8-0.6-1.7-0.6-2.6c0.1-2.5,1.9-4.6,4.5-5C232.6,2.7,234.6,4,235.4,5.6"/>
			</g>
			<g>
				<path class="st11" d="M228.3,12.7c0.1,0.1,0.2,0.1,0.4,0.2c0.7,0.3,1.4,0.5,2.2,0.5c2.6,0,5.1,0,7.7,0h0.2
					c-0.1,0.1-0.2,0.2-0.2,0.3c-0.4,0.5-0.8,1-1.2,1.5c0,0.1-0.1,0.1-0.2,0.1c-1.5,0-3,0-4.6,0c-1.1,0-2.1-0.4-3-1.1
					c-0.5-0.4-0.9-0.8-1.2-1.4C228.3,12.8,228.3,12.8,228.3,12.7C228.3,12.8,228.3,12.7,228.3,12.7"/>
			</g>
			<g>
				<path class="st11" d="M235.6,5.7c0.3,0.2,0.5,0.4,0.7,0.6c1,1.1,1.6,2.4,1.7,3.4c0.1,0.9-0.1,1.8-0.4,2.6c0,0.1-0.1,0.1-0.2,0.1
					c-1.1,0-2.2,0-3.3,0C236.2,10.5,236.7,8.3,235.6,5.7"/>
			</g>
		</g>
		<g>
			<path class="st0" d="M244.6,3v12.4H257V3H244.6z M247.2,14.5h-0.8c-0.3,0-0.5-0.3-0.5-0.7c0-0.4,0.2-0.7,0.5-0.7h0.8
				c0.3,0,0.5,0.3,0.5,0.7C247.7,14.2,247.5,14.5,247.2,14.5z M250.5,12.6h-4.1c-0.3,0-0.6-0.3-0.6-0.7c0-0.4,0.3-0.7,0.6-0.7h4.1
				c0.3,0,0.6,0.3,0.6,0.7C251,12.3,250.8,12.6,250.5,12.6z M253.6,7.5c0,1.8-1.4,3.2-3.2,3.2h-3.9c-0.4,0-0.7-0.3-0.7-0.7
				c0-0.4,0.3-0.7,0.7-0.7h3.9c1,0,1.8-0.8,1.8-1.8v-2c0-0.4,0.3-0.7,0.7-0.7c0.4,0,0.7,0.3,0.7,0.7V7.5z"/>
		</g>
	</g>
	<g>
		<path d="M74.8,36.7c-0.3-0.4-0.5-0.8-0.7-1.3c-0.2-0.5-0.3-1-0.4-1.4c-0.1-0.5-0.1-0.9-0.1-1.3c0-0.4,0-0.9,0.1-1.3
			c0.1-0.5,0.2-1,0.4-1.4c0.2-0.5,0.4-0.9,0.7-1.3l0.5,0.1c-0.2,0.3-0.4,0.7-0.6,1.2c-0.2,0.5-0.3,0.9-0.4,1.4
			c-0.1,0.5-0.1,0.9-0.1,1.3c0,0.4,0,0.9,0.1,1.3s0.2,0.9,0.4,1.4c0.2,0.5,0.4,0.9,0.6,1.2L74.8,36.7z"/>
	</g>
	<g>
		<path d="M77.7,34.6c-0.3-0.2-0.5-0.4-0.6-0.6c-0.2-0.3-0.2-0.6-0.2-0.9c0-0.3,0.1-0.6,0.2-0.9c0.2-0.3,0.4-0.5,0.6-0.6
			c0.3-0.2,0.6-0.2,0.9-0.2c0.3,0,0.6,0.1,0.9,0.2c0.3,0.2,0.5,0.4,0.6,0.6c0.2,0.3,0.2,0.5,0.2,0.9c0,0.3-0.1,0.6-0.2,0.9
			c-0.2,0.3-0.4,0.5-0.6,0.6c-0.3,0.2-0.5,0.2-0.9,0.2C78.2,34.8,77.9,34.8,77.7,34.6z M79,33.9c0.1-0.1,0.3-0.2,0.3-0.3
			c0.1-0.1,0.1-0.3,0.1-0.5s0-0.3-0.1-0.5c-0.1-0.1-0.2-0.3-0.3-0.3c-0.1-0.1-0.3-0.1-0.5-0.1c-0.2,0-0.3,0-0.5,0.1
			c-0.1,0.1-0.3,0.2-0.3,0.3c-0.1,0.1-0.1,0.3-0.1,0.5s0,0.3,0.1,0.5c0.1,0.1,0.2,0.3,0.3,0.3c0.1,0.1,0.3,0.1,0.5,0.1
			C78.7,34,78.8,34,79,33.9z"/>
	</g>
	<g>
		<path d="M86.8,29.8c0,0.6,0,1.1-0.1,1.4c-0.1,0.3-0.2,0.6-0.3,0.8c-0.2,0.2-0.4,0.3-0.7,0.4c-0.3,0.1-0.7,0.2-1.1,0.2
			c-0.3,0-0.6,0-0.9-0.1l0.5,2.8l-0.8,0l-1.2-6.5l0.9-0.3l0.5,3c0.3,0.1,0.6,0.1,0.9,0.1c0.3,0,0.6,0,0.9-0.1
			c0.3-0.1,0.5-0.1,0.7-0.3l0-2.8h0.8C86.8,29,86.8,29.5,86.8,29.8z"/>
	</g>
	<g>
		<path d="M89,35.3L88,28.7l0.9-0.3l0.9,6.8L89,35.3z"/>
	</g>
	<g>
		<path d="M91.5,35.3c0.2-0.5,0.3-0.9,0.4-1.4c0.1-0.5,0.1-0.9,0.1-1.3c0-0.4,0-0.8-0.1-1.3c-0.1-0.5-0.2-0.9-0.4-1.4
			c-0.2-0.5-0.3-0.9-0.6-1.2l0.5-0.1c0.3,0.4,0.5,0.8,0.7,1.3c0.2,0.5,0.3,1,0.4,1.4c0.1,0.5,0.1,0.9,0.1,1.3c0,0.4,0,0.9-0.1,1.3
			c-0.1,0.5-0.2,1-0.4,1.4c-0.2,0.5-0.4,0.9-0.7,1.3l-0.5-0.1C91.1,36.2,91.3,35.8,91.5,35.3z"/>
	</g>
	<g>
		<g>
			<rect x="155.2" y="26.6" width="1" height="11.1"/>
		</g>
	</g>
	<g>
		<g>
			<path d="M78.2,50.6c0,0.2,0,0.4,0,0.7c-0.1,0.9-0.7,1.8-2.3,1.8c-1.6,0-2.3-0.8-2.3-1.8c0-0.3,0-0.4,0-0.7v-3.4h1.1v3.5
				c0,0.2,0,0.3,0,0.4c0,0.7,0.4,1.1,1.2,1.1c0.8,0,1.1-0.4,1.2-1.1c0-0.1,0-0.2,0-0.4v-3.5h1.1V50.6z"/>
			<path d="M84.1,50.5v2.5h-1.1v-2.3c0-0.2,0-0.4,0-0.6c0-0.5-0.3-0.8-0.8-0.8s-1,0.5-1,1.7v2H80v-4.4h1.1v0.7l0.3-0.5
				c0.3-0.2,0.6-0.3,1.1-0.3c0.9,0,1.5,0.5,1.6,1.2C84.1,49.9,84.1,50.1,84.1,50.5z"/>
			<path d="M87.1,47.5c0,0.4-0.3,0.6-0.6,0.6c-0.4,0-0.6-0.2-0.6-0.6c0-0.4,0.3-0.6,0.6-0.6C86.9,46.9,87.1,47.2,87.1,47.5z
				 M85.9,52.9v-4.4h1.1v4.4H85.9z"/>
			<path d="M90.3,51.4c0,0.1,0,0.3,0,0.4c0,0.4,0.2,0.5,0.8,0.5V53c-0.3,0-0.5,0.1-0.8,0.1c-0.9,0-1.2-0.3-1.2-0.9
				c0-0.2,0-0.4,0-0.6v-2.2h-0.6v-0.8h0.6v-1.1h1.1v1.1h0.9v0.8h-0.9V51.4z"/>
			<path d="M99.4,51.3c0,1.1-0.9,1.8-2.2,1.8c-1.3,0-2.1-0.6-2.2-1.8l0-0.1h1.1l0,0.1c0.1,0.6,0.5,0.9,1.1,0.9c0.6,0,1-0.3,1-0.9
				c0-0.6-0.4-0.9-1.1-0.9h-0.2v-0.8l0.2,0c0.6,0,1-0.4,1-0.9c0-0.5-0.3-0.8-0.8-0.8c-0.5,0-0.8,0.4-0.9,0.9l0,0.1h-1.1l0-0.1
				c0.1-1,0.8-1.8,2.1-1.8c1.2,0,1.9,0.7,1.9,1.5c0,0.7-0.4,1.1-1.1,1.3C99,50.1,99.4,50.6,99.4,51.3z"/>
			<path d="M101.3,54h-0.9l0.7-2.2h1.1v0.1L101.3,54z"/>
			<path d="M107.8,49.6h2.6v0.9h-2.6v2.4h-1.1v-5.7h4v0.9h-2.9V49.6z"/>
			<path d="M113.3,51.5c0,0.2,0,0.3,0,0.4c0,0.2,0.1,0.3,0.5,0.3V53c-0.2,0-0.4,0-0.7,0c-0.6,0-0.9-0.2-0.9-0.8c0-0.2,0-0.4,0-0.7
				v-4.7h1.1V51.5z"/>
			<path d="M119.6,50.8c0,1.3-0.8,2.3-2.3,2.3c-1.5,0-2.3-1-2.3-2.3c0-1.3,0.8-2.3,2.3-2.3C118.8,48.4,119.6,49.4,119.6,50.8z
				 M118.4,50.8c0-0.9-0.4-1.5-1.1-1.5c-0.7,0-1.1,0.6-1.1,1.5c0,0.9,0.4,1.5,1.1,1.5C118,52.3,118.4,51.7,118.4,50.8z"/>
			<path d="M125.4,50.8c0,1.3-0.8,2.3-2.3,2.3c-1.5,0-2.3-1-2.3-2.3c0-1.3,0.8-2.3,2.3-2.3C124.6,48.4,125.4,49.4,125.4,50.8z
				 M124.2,50.8c0-0.9-0.4-1.5-1.1-1.5c-0.7,0-1.1,0.6-1.1,1.5c0,0.9,0.4,1.5,1.1,1.5C123.8,52.3,124.2,51.7,124.2,50.8z"/>
			<path d="M129.5,48.5v0.9c-0.9-0.1-1.4,0.4-1.4,1.5v2H127v-4.4h1.1v0.8l0.3-0.6c0.2-0.2,0.5-0.3,0.8-0.3
				C129.3,48.4,129.4,48.5,129.5,48.5z"/>
			<path d="M137.5,52v0.9h-4.2v-0.5l1.9-1.9c0.8-0.8,1.1-1.2,1.1-1.7c0-0.5-0.3-0.9-0.8-0.9c-0.6,0-0.8,0.4-0.9,1l0,0.1h-1.1l0-0.1
				c0.1-1.2,0.9-1.9,2.2-1.9c1.3,0,1.9,0.7,1.9,1.6c0,0.7-0.4,1.2-1.4,2.2l-1.1,1H137.5z"/>
			<path d="M139.5,54h-0.9l0.7-2.2h1.1v0.1L139.5,54z"/>
			<path d="M148.3,52.9l-2.3-4.3c0,0.6,0,1.3,0,1.8v2.6h-1.1v-5.7h1.5l2.4,4.4c0-0.6,0-1.3,0-1.8v-2.6h1.1l0,5.7H148.3z"/>
			<path d="M156,50.8c0,1.3-0.8,2.3-2.3,2.3c-1.5,0-2.3-1-2.3-2.3c0-1.3,0.8-2.3,2.3-2.3C155.2,48.4,156,49.4,156,50.8z M154.8,50.8
				c0-0.9-0.4-1.5-1.1-1.5c-0.7,0-1.1,0.6-1.1,1.5c0,0.9,0.4,1.5,1.1,1.5C154.4,52.3,154.8,51.7,154.8,50.8z"/>
			<path d="M158.8,52.4c0,0.4-0.3,0.7-0.7,0.7c-0.4,0-0.7-0.3-0.7-0.7s0.3-0.7,0.7-0.7C158.5,51.7,158.8,52,158.8,52.4z"/>
			<path d="M163.7,52.9h-1.1v-4.5l-1.7,0.9v-1.1l1.3-0.8c0.3-0.2,0.6-0.3,0.9-0.3h0.6V52.9z"/>
			<path d="M169.7,52.9h-1.1v-4.5l-1.7,0.9v-1.1l1.3-0.8c0.3-0.2,0.6-0.3,0.9-0.3h0.6V52.9z"/>
			<path d="M176.1,51.6v1.3h-1.1v-1.3h-2.7V51l2.7-3.7h1.2v3.5h0.7v0.9H176.1z M174.9,48.5c-0.1,0.2-0.2,0.4-0.4,0.6l-1.1,1.6h1.5
				V48.5z"/>
			<path d="M178.6,54h-0.9l0.7-2.2h1.1v0.1L178.6,54z"/>
			<path d="M185.1,51.2l-0.6,1.7h-1.2l2.1-5.7h1.4l2,5.7h-1.2l-0.6-1.7H185.1z M185.4,50.3h1.3l-0.7-2.1L185.4,50.3z"/>
			<path d="M191.3,48.4v0.2h0.9v0.8h-0.9v3.6h-1.1v-3.6h-0.5v-0.8h0.5v-0.2c0-0.1,0-0.4,0-0.5c0.1-0.7,0.6-1.2,1.6-1.2
				c0.2,0,0.4,0,0.5,0.1v0.8c-0.5-0.1-0.9,0-1,0.4C191.3,48.1,191.3,48.3,191.3,48.4z"/>
			<path d="M195.1,51.4c0,0.1,0,0.3,0,0.4c0,0.4,0.2,0.5,0.8,0.5V53c-0.3,0-0.5,0.1-0.8,0.1c-0.9,0-1.2-0.3-1.2-0.9
				c0-0.2,0-0.4,0-0.6v-2.2h-0.6v-0.8h0.6v-1.1h1.1v1.1h0.9v0.8h-0.9V51.4z"/>
			<path d="M201.5,51h-3.1c0.1,0.9,0.5,1.2,1,1.2c0.5,0,0.8-0.3,0.9-0.7h1.1c-0.2,1-1,1.5-2.1,1.5c-1.2,0-2.1-0.8-2.1-2.3
				c0-1.3,0.9-2.3,2.2-2.3s2.1,1,2.1,2.2C201.5,50.8,201.5,50.9,201.5,51z M198.4,50.3h1.9c-0.1-0.7-0.4-1.1-0.9-1.1
				C198.9,49.2,198.5,49.6,198.4,50.3z"/>
			<path d="M205.7,48.5v0.9c-0.9-0.1-1.4,0.4-1.4,1.5v2h-1.1v-4.4h1.1v0.8l0.3-0.6c0.2-0.2,0.5-0.3,0.8-0.3
				C205.5,48.4,205.6,48.5,205.7,48.5z"/>
			<path d="M214.2,51.2c0,1.1-0.8,1.6-1.6,1.7c-0.3,0-0.5,0-0.8,0h-2.1v-5.7h2c0.3,0,0.5,0,0.7,0c0.9,0.1,1.4,0.7,1.4,1.4
				c0,0.6-0.3,1-0.9,1.2C213.8,50.1,214.2,50.5,214.2,51.2z M210.9,49.6h0.9c0.1,0,0.3,0,0.4,0c0.4-0.1,0.6-0.3,0.6-0.7
				c0-0.4-0.3-0.6-0.6-0.7c-0.1,0-0.3,0-0.4,0h-0.8V49.6z M213,51.3c0-0.5-0.3-0.8-0.7-0.8c-0.1,0-0.3,0-0.4,0h-0.9V52h1
				c0.1,0,0.3,0,0.4,0C212.6,52,213,51.7,213,51.3z"/>
			<path d="M218.2,52.3l-0.2,0.5c-0.3,0.2-0.7,0.3-1.1,0.3c-0.8,0-1.4-0.4-1.4-1.3c0-1,0.8-1.5,2.4-1.5h0.3v-0.1c0-0.1,0-0.3,0-0.4
				c0-0.3-0.2-0.5-0.7-0.5c-0.5,0-0.7,0.3-0.7,0.7l-1.1,0c0-1,0.8-1.6,1.9-1.6c1.2,0,1.7,0.5,1.8,1.3c0,0.2,0,0.4,0,0.7v1.4
				c0,0.3,0,0.6,0.1,1.1h-1.1L218.2,52.3z M218.2,51.3V51c-0.9-0.1-1.5,0.1-1.5,0.7c0,0.4,0.3,0.6,0.7,0.6
				C217.8,52.3,218.2,51.9,218.2,51.3z"/>
			<path d="M225.4,50.5v2.5h-1.1v-2.3c0-0.2,0-0.4,0-0.6c0-0.5-0.3-0.8-0.8-0.8c-0.6,0-1,0.5-1,1.7v2h-1.1v-6.1h1.1v2.4l0.3-0.5
				c0.3-0.2,0.6-0.3,1.1-0.3c0.9,0,1.5,0.5,1.6,1.2C225.4,49.9,225.4,50.1,225.4,50.5z"/>
			<path d="M229.7,52.3l-0.2,0.5c-0.3,0.2-0.7,0.3-1.1,0.3c-0.8,0-1.4-0.4-1.4-1.3c0-1,0.8-1.5,2.4-1.5h0.3v-0.1c0-0.1,0-0.3,0-0.4
				c0-0.3-0.2-0.5-0.7-0.5c-0.5,0-0.7,0.3-0.7,0.7l-1.1,0c0-1,0.8-1.6,1.9-1.6c1.2,0,1.7,0.5,1.8,1.3c0,0.2,0,0.4,0,0.7v1.4
				c0,0.3,0,0.6,0.1,1.1h-1.1L229.7,52.3z M229.7,51.3V51c-0.9-0.1-1.5,0.1-1.5,0.7c0,0.4,0.3,0.6,0.7,0.6
				C229.3,52.3,229.7,51.9,229.7,51.3z"/>
			<path d="M235.2,48.5v0.9c-0.9-0.1-1.4,0.4-1.4,1.5v2h-1.1v-4.4h1.1v0.8l0.3-0.6c0.2-0.2,0.5-0.3,0.8-0.3
				C235,48.4,235.1,48.5,235.2,48.5z"/>
			<path d="M240.3,47.5c0,0.4-0.3,0.6-0.6,0.6c-0.4,0-0.6-0.2-0.6-0.6c0-0.4,0.3-0.6,0.6-0.6C240,46.9,240.3,47.2,240.3,47.5z
				 M239.1,52.9v-4.4h1.1v4.4H239.1z"/>
			<path d="M246.2,50.5v2.5h-1.1v-2.3c0-0.2,0-0.4,0-0.6c0-0.5-0.3-0.8-0.8-0.8s-1,0.5-1,1.7v2h-1.1v-4.4h1.1v0.7l0.3-0.5
				c0.3-0.2,0.6-0.3,1.1-0.3c0.9,0,1.5,0.5,1.6,1.2C246.2,49.9,246.2,50.1,246.2,50.5z"/>
			<path d="M249.4,51.4c0,0.1,0,0.3,0,0.4c0,0.4,0.2,0.5,0.8,0.5V53c-0.3,0-0.5,0.1-0.8,0.1c-0.9,0-1.2-0.3-1.2-0.9
				c0-0.2,0-0.4,0-0.6v-2.2h-0.6v-0.8h0.6v-1.1h1.1v1.1h0.9v0.8h-0.9V51.4z"/>
			<path d="M255.8,51h-3.1c0.1,0.9,0.5,1.2,1,1.2c0.5,0,0.8-0.3,0.9-0.7h1.1c-0.2,1-1,1.5-2.1,1.5c-1.2,0-2.1-0.8-2.1-2.3
				c0-1.3,0.9-2.3,2.2-2.3s2.1,1,2.1,2.2C255.8,50.8,255.8,50.9,255.8,51z M252.7,50.3h1.9c-0.1-0.7-0.4-1.1-0.9-1.1
				C253.2,49.2,252.8,49.6,252.7,50.3z"/>
			<path d="M260,48.5v0.9c-0.9-0.1-1.4,0.4-1.4,1.5v2h-1.1v-4.4h1.1v0.8l0.3-0.6c0.2-0.2,0.5-0.3,0.8-0.3
				C259.8,48.4,259.9,48.5,260,48.5z"/>
			<path d="M264.7,49.8h-1.1c-0.1-0.4-0.3-0.6-0.7-0.6c-0.3,0-0.5,0.2-0.5,0.5c0,0.3,0.3,0.5,1,0.7c0.9,0.2,1.4,0.6,1.4,1.4
				c0,0.9-0.8,1.3-1.8,1.3c-1.1,0-1.8-0.5-1.9-1.5h1.1c0.1,0.5,0.4,0.7,0.8,0.7c0.4,0,0.6-0.2,0.6-0.5c0-0.3-0.3-0.5-1-0.7
				c-0.8-0.2-1.4-0.6-1.4-1.3c0-0.8,0.7-1.4,1.7-1.4S264.6,49,264.7,49.8z"/>
			<path d="M270.3,51h-3.1c0.1,0.9,0.5,1.2,1,1.2c0.5,0,0.8-0.3,0.9-0.7h1.1c-0.2,1-1,1.5-2.1,1.5c-1.2,0-2.1-0.8-2.1-2.3
				c0-1.3,0.9-2.3,2.2-2.3s2.1,1,2.1,2.2C270.3,50.8,270.3,50.9,270.3,51z M267.2,50.3h1.9c-0.1-0.7-0.4-1.1-0.9-1.1
				C267.7,49.2,267.3,49.6,267.2,50.3z"/>
			<path d="M275.9,50.1h-1.1c-0.1-0.6-0.4-0.9-0.9-0.9c-0.6,0-1,0.5-1,1.5c0,1.1,0.4,1.6,1,1.6c0.4,0,0.8-0.3,0.9-0.8h1.1
				c-0.2,1.1-1,1.6-2.1,1.6c-1.2,0-2.1-0.8-2.1-2.3c0-1.5,1-2.3,2.2-2.3C275,48.4,275.8,49.2,275.9,50.1z"/>
			<path d="M278.8,51.4c0,0.1,0,0.3,0,0.4c0,0.4,0.2,0.5,0.8,0.5V53c-0.3,0-0.5,0.1-0.8,0.1c-0.9,0-1.2-0.3-1.2-0.9
				c0-0.2,0-0.4,0-0.6v-2.2H277v-0.8h0.6v-1.1h1.1v1.1h0.9v0.8h-0.9V51.4z"/>
			<path d="M282.4,47.5c0,0.4-0.3,0.6-0.6,0.6c-0.4,0-0.6-0.2-0.6-0.6c0-0.4,0.3-0.6,0.6-0.6C282.2,46.9,282.4,47.2,282.4,47.5z
				 M281.2,52.9v-4.4h1.1v4.4H281.2z"/>
			<path d="M288.5,50.8c0,1.3-0.8,2.3-2.3,2.3c-1.5,0-2.3-1-2.3-2.3c0-1.3,0.8-2.3,2.3-2.3C287.7,48.4,288.5,49.4,288.5,50.8z
				 M287.3,50.8c0-0.9-0.4-1.5-1.1-1.5c-0.7,0-1.1,0.6-1.1,1.5c0,0.9,0.4,1.5,1.1,1.5C286.9,52.3,287.3,51.7,287.3,50.8z"/>
			<path d="M294.2,50.5v2.5h-1.1v-2.3c0-0.2,0-0.4,0-0.6c0-0.5-0.3-0.8-0.8-0.8s-1,0.5-1,1.7v2h-1.1v-4.4h1.1v0.7l0.3-0.5
				c0.3-0.2,0.6-0.3,1.1-0.3c0.9,0,1.5,0.5,1.6,1.2C294.2,49.9,294.2,50.1,294.2,50.5z"/>
			<path d="M296.2,54h-0.9l0.7-2.2h1.1v0.1L296.2,54z"/>
			<path d="M304.1,48.1v4.8h-1.1v-4.8H301v-0.9h5v0.9H304.1z"/>
			<path d="M309.8,52.3l-0.2,0.5c-0.3,0.2-0.7,0.3-1.1,0.3c-0.8,0-1.4-0.4-1.4-1.3c0-1,0.8-1.5,2.4-1.5h0.3v-0.1c0-0.1,0-0.3,0-0.4
				c0-0.3-0.2-0.5-0.7-0.5c-0.5,0-0.7,0.3-0.7,0.7l-1.1,0c0-1,0.8-1.6,1.9-1.6c1.2,0,1.7,0.5,1.8,1.3c0,0.2,0,0.4,0,0.7v1.4
				c0,0.3,0,0.6,0.1,1.1h-1.1L309.8,52.3z M309.7,51.3V51c-0.9-0.1-1.5,0.1-1.5,0.7c0,0.4,0.3,0.6,0.7,0.6
				C309.4,52.3,309.7,51.9,309.7,51.3z"/>
			<path d="M313.9,51.5c0,0.2,0,0.3,0,0.4c0,0.2,0.1,0.3,0.5,0.3V53c-0.2,0-0.4,0-0.7,0c-0.6,0-0.9-0.2-0.9-0.8c0-0.2,0-0.4,0-0.7
				v-4.7h1.1V51.5z"/>
			<path d="M319.9,51h-3.1c0.1,0.9,0.5,1.2,1,1.2c0.5,0,0.8-0.3,0.9-0.7h1.1c-0.2,1-1,1.5-2.1,1.5c-1.2,0-2.1-0.8-2.1-2.3
				c0-1.3,0.9-2.3,2.2-2.3s2.1,1,2.1,2.2C319.9,50.8,319.9,50.9,319.9,51z M316.8,50.3h1.9c-0.1-0.7-0.4-1.1-0.9-1.1
				C317.3,49.2,316.9,49.6,316.8,50.3z"/>
			<path d="M325.8,54.6h-1.1v-2.3l-0.3,0.5c-0.2,0.2-0.7,0.3-1.1,0.3c-1.2,0-2-0.9-2-2.2c0-1.6,1-2.4,2.1-2.4c0.4,0,0.8,0.1,1,0.2
				l0.3,0.5v-0.6h1.1V54.6z M324.6,50.8v-0.2c0-1-0.6-1.3-1.1-1.3c-0.7,0-1.1,0.5-1.1,1.5c0,0.9,0.4,1.5,1.1,1.5
				C324.1,52.3,324.6,51.9,324.6,50.8z"/>
			<path d="M330.1,52.3l-0.2,0.5c-0.3,0.2-0.7,0.3-1.1,0.3c-0.8,0-1.4-0.4-1.4-1.3c0-1,0.8-1.5,2.4-1.5h0.3v-0.1c0-0.1,0-0.3,0-0.4
				c0-0.3-0.2-0.5-0.7-0.5c-0.5,0-0.7,0.3-0.7,0.7l-1.1,0c0-1,0.8-1.6,1.9-1.6c1.2,0,1.7,0.5,1.8,1.3c0,0.2,0,0.4,0,0.7v1.4
				c0,0.3,0,0.6,0.1,1.1h-1.1L330.1,52.3z M330.1,51.3V51c-0.9-0.1-1.5,0.1-1.5,0.7c0,0.4,0.3,0.6,0.7,0.6
				C329.7,52.3,330.1,51.9,330.1,51.3z"/>
			<path d="M337.3,50.5v2.5h-1.1v-2.3c0-0.2,0-0.4,0-0.6c0-0.5-0.3-0.8-0.8-0.8s-1,0.5-1,1.7v2h-1.1v-4.4h1.1v0.7l0.3-0.5
				c0.3-0.2,0.6-0.3,1.1-0.3c0.9,0,1.5,0.5,1.6,1.2C337.2,49.9,337.3,50.1,337.3,50.5z"/>
			<path d="M340.3,47.5c0,0.4-0.3,0.6-0.6,0.6c-0.4,0-0.6-0.2-0.6-0.6c0-0.4,0.3-0.6,0.6-0.6C340,46.9,340.3,47.2,340.3,47.5z
				 M339.1,52.9v-4.4h1.1v4.4H339.1z"/>
			<path d="M348.7,48.9h-1.2c-0.1-0.6-0.4-0.9-1-0.9c-0.5,0-0.8,0.2-0.8,0.7c0,0.5,0.3,0.7,1.2,0.9c1.3,0.3,1.8,0.9,1.8,1.8
				c0,1.1-1,1.7-2.1,1.7c-1.4,0-2.3-0.6-2.4-1.8h1.2c0.1,0.6,0.6,0.9,1.2,0.9c0.5,0,0.9-0.3,0.9-0.7c0-0.5-0.3-0.8-1.1-1
				c-1.2-0.3-1.9-0.7-1.9-1.7c0-1,0.9-1.7,2-1.7C348,47.1,348.6,47.9,348.7,48.9z"/>
			<path d="M351.7,51.4c0,0.1,0,0.3,0,0.4c0,0.4,0.2,0.5,0.8,0.5V53c-0.3,0-0.5,0.1-0.8,0.1c-0.9,0-1.2-0.3-1.2-0.9
				c0-0.2,0-0.4,0-0.6v-2.2H350v-0.8h0.6v-1.1h1.1v1.1h0.9v0.8h-0.9V51.4z"/>
			<path d="M355.4,52.4c0,0.4-0.3,0.7-0.7,0.7c-0.4,0-0.7-0.3-0.7-0.7s0.3-0.7,0.7-0.7C355.1,51.7,355.4,52,355.4,52.4z"/>
			<path d="M357.2,54h-0.9l0.7-2.2h1.1v0.1L357.2,54z"/>
			<path d="M365.1,48.1v4.8h-1.1v-4.8H362v-0.9h5v0.9H365.1z"/>
			<path d="M372.3,51h-3.1c0.1,0.9,0.5,1.2,1,1.2c0.5,0,0.8-0.3,0.9-0.7h1.1c-0.2,1-1,1.5-2.1,1.5c-1.2,0-2.1-0.8-2.1-2.3
				c0-1.3,0.9-2.3,2.2-2.3s2.1,1,2.1,2.2C372.3,50.8,372.3,50.9,372.3,51z M369.2,50.3h1.9c-0.1-0.7-0.4-1.1-0.9-1.1
				C369.7,49.2,369.3,49.6,369.2,50.3z"/>
			<path d="M378,50.5v2.5h-1.1v-2.3c0-0.2,0-0.4,0-0.6c0-0.5-0.3-0.8-0.8-0.8c-0.6,0-1,0.5-1,1.7v2h-1.1v-6.1h1.1v2.4l0.3-0.5
				c0.3-0.2,0.6-0.3,1.1-0.3c0.9,0,1.5,0.5,1.6,1.2C378,49.9,378,50.1,378,50.5z"/>
			<path d="M382.4,48.5v0.9c-0.9-0.1-1.4,0.4-1.4,1.5v2h-1.1v-4.4h1.1v0.8l0.3-0.6c0.2-0.2,0.5-0.3,0.8-0.3
				C382.2,48.4,382.3,48.5,382.4,48.5z"/>
			<path d="M386.3,52.3l-0.2,0.5c-0.3,0.2-0.7,0.3-1.1,0.3c-0.8,0-1.4-0.4-1.4-1.3c0-1,0.8-1.5,2.4-1.5h0.3v-0.1c0-0.1,0-0.3,0-0.4
				c0-0.3-0.2-0.5-0.7-0.5c-0.5,0-0.7,0.3-0.7,0.7l-1.1,0c0-1,0.8-1.6,1.9-1.6c1.2,0,1.7,0.5,1.8,1.3c0,0.2,0,0.4,0,0.7v1.4
				c0,0.3,0,0.6,0.1,1.1h-1.1L386.3,52.3z M386.3,51.3V51c-0.9-0.1-1.5,0.1-1.5,0.7c0,0.4,0.3,0.6,0.7,0.6
				C385.9,52.3,386.3,51.9,386.3,51.3z"/>
			<path d="M393.4,50.5v2.5h-1.1v-2.3c0-0.2,0-0.4,0-0.6c0-0.5-0.3-0.8-0.8-0.8s-1,0.5-1,1.7v2h-1.1v-4.4h1.1v0.7l0.3-0.5
				c0.3-0.2,0.6-0.3,1.1-0.3c0.9,0,1.5,0.5,1.6,1.2C393.4,49.9,393.4,50.1,393.4,50.5z"/>
			<path d="M397.4,50.9v-0.6h1.9v0.6H397.4z"/>
			<path d="M403.6,52.9v-5.7h1.1v5.7H403.6z"/>
			<path d="M411.4,52.9h-1.2c-0.1-0.4-0.2-0.7-0.3-1.3c-0.1-0.6-0.3-1-0.8-1c-0.2,0-0.3,0-0.4,0H408v2.3h-1.1v-5.7h2.1
				c0.3,0,0.5,0,0.8,0c0.8,0.1,1.5,0.5,1.5,1.5c0,0.7-0.4,1.2-1.1,1.4c0.6,0.2,0.8,0.7,0.8,1.3C411,52.2,411.1,52.6,411.4,52.9z
				 M408.8,49.8c0.2,0,0.3,0,0.5,0c0.5,0,0.8-0.3,0.8-0.8s-0.3-0.8-0.8-0.8c-0.1,0-0.3,0-0.5,0H408v1.7H408.8z"/>
			<path d="M414.2,51.2l-0.6,1.7h-1.2l2.1-5.7h1.4l2,5.7h-1.2l-0.6-1.7H414.2z M414.5,50.3h1.3l-0.7-2.1L414.5,50.3z"/>
			<path d="M422.9,52.9l-2.3-4.3c0,0.6,0,1.3,0,1.8v2.6h-1.1v-5.7h1.5l2.4,4.4c0-0.6,0-1.3,0-1.8v-2.6h1.1l0,5.7H422.9z"/>
		</g>
		<g>
			<path d="M479.3,47.9l-2.7,5.1h-1.2l2.6-4.8h-3v-0.9h4.4V47.9z"/>
			<path d="M485.3,47.9l-2.7,5.1h-1.2l2.6-4.8h-3v-0.9h4.4V47.9z"/>
			<path d="M491.3,51c0,1.3-1,2.1-2.2,2.1c-1.4,0-2.2-0.8-2.2-2.8c0-2.1,1-3.1,2.4-3.1c1.1,0,1.8,0.6,1.9,1.6l0,0.1h-1.2l0-0.1
				c-0.1-0.5-0.4-0.8-0.8-0.8c-0.7,0-1.1,0.6-1.1,2l0.3-0.5c0.3-0.2,0.6-0.3,1-0.3C490.6,49.1,491.3,49.9,491.3,51z M490.1,51.1
				c0-0.7-0.3-1.2-1-1.2c-0.5,0-0.9,0.4-0.9,1.1c0,0.7,0.4,1.1,1,1.1C489.7,52.2,490.1,51.7,490.1,51.1z"/>
			<path d="M496.3,52.9h-1.1v-4.5l-1.7,0.9v-1.1l1.3-0.8c0.3-0.2,0.6-0.3,0.9-0.3h0.6V52.9z"/>
			<path d="M503.1,52v0.9H499v-0.5l1.9-1.9c0.8-0.8,1.1-1.2,1.1-1.7c0-0.5-0.3-0.9-0.8-0.9c-0.6,0-0.8,0.4-0.9,1l0,0.1h-1.1l0-0.1
				c0.1-1.2,0.9-1.9,2.2-1.9c1.3,0,1.9,0.7,1.9,1.6c0,0.7-0.4,1.2-1.4,2.2l-1.1,1H503.1z"/>
			<path d="M509.3,50.1c0,1.8-0.6,3-2.2,3c-1.6,0-2.2-1.2-2.2-3c0-1.8,0.6-3,2.2-3C508.7,47.1,509.3,48.3,509.3,50.1z M508.1,50.1
				c0-1.5-0.3-2.1-1-2.1c-0.7,0-1,0.7-1,2.1c0,1.4,0.3,2.1,1,2.1C507.8,52.2,508.1,51.5,508.1,50.1z"/>
			<path d="M515.3,50.1c0,1.8-0.6,3-2.2,3c-1.6,0-2.2-1.2-2.2-3c0-1.8,0.6-3,2.2-3C514.7,47.1,515.3,48.3,515.3,50.1z M514.1,50.1
				c0-1.5-0.3-2.1-1-2.1c-0.7,0-1,0.7-1,2.1c0,1.4,0.3,2.1,1,2.1C513.8,52.2,514.1,51.5,514.1,50.1z"/>
			<path d="M521.3,50.1c0,1.8-0.6,3-2.2,3c-1.6,0-2.2-1.2-2.2-3c0-1.8,0.6-3,2.2-3C520.7,47.1,521.3,48.3,521.3,50.1z M520.1,50.1
				c0-1.5-0.3-2.1-1-2.1c-0.7,0-1,0.7-1,2.1c0,1.4,0.3,2.1,1,2.1C519.7,52.2,520.1,51.5,520.1,50.1z"/>
		</g>
		<g>
			<path d="M456.9,46.5c-0.7,1-1.1,2.2-1.1,3.5s0.4,2.5,1.1,3.5h-0.6c-0.7-0.9-1.2-2.1-1.2-3.5c0-1.4,0.4-2.6,1.2-3.5H456.9z"/>
			<path d="M462.7,52v0.9h-4.2v-0.5l1.9-1.9c0.8-0.8,1.1-1.2,1.1-1.7c0-0.5-0.3-0.9-0.8-0.9c-0.6,0-0.8,0.4-0.9,1l0,0.1h-1.1l0-0.1
				c0.1-1.2,0.9-1.9,2.2-1.9c1.3,0,1.9,0.7,1.9,1.6c0,0.7-0.4,1.2-1.4,2.2l-1.1,1H462.7z"/>
			<path d="M467.9,52.9h-1.1v-4.5l-1.7,0.9v-1.1l1.3-0.8c0.3-0.2,0.6-0.3,0.9-0.3h0.6V52.9z"/>
			<path d="M470.9,46.5c0.7,0.9,1.2,2.1,1.2,3.5c0,1.4-0.4,2.7-1.2,3.5h-0.6c0.7-1,1.1-2.2,1.1-3.5s-0.4-2.5-1.1-3.5H470.9z"/>
		</g>
		<g>
			<path d="M439.3,50.6v1.6h-0.7v-1.6h-1.5V50h1.5v-1.7h0.7V50h1.5v0.6H439.3z"/>
			<path d="M447.1,49.9c0,2.1-1,3.1-2.4,3.1c-1.2,0-1.8-0.6-1.9-1.6l0-0.1h1.2l0,0.1c0.1,0.5,0.4,0.8,0.8,0.8c0.7,0,1.1-0.6,1.1-2
				l-0.3,0.5c-0.3,0.2-0.6,0.3-1,0.3c-1.2,0-1.9-0.8-1.9-1.9c0-1.3,1-2.1,2.2-2.1C446.3,47.1,447.1,48,447.1,49.9z M445.9,49.1
				c0-0.7-0.4-1.1-1-1.1c-0.6,0-1,0.5-1,1.1c0,0.7,0.3,1.2,1,1.2C445.4,50.2,445.9,49.8,445.9,49.1z"/>
			<path d="M453.1,51.3c0,1.2-1,1.7-2.2,1.7c-1.3,0-2.2-0.5-2.2-1.7c0-0.7,0.5-1.2,1.1-1.4c-0.5-0.2-0.8-0.6-0.8-1.2
				c0-0.9,0.7-1.6,2-1.6c1.2,0,2,0.6,2,1.6c0,0.7-0.4,1-0.9,1.2C452.6,50.1,453.1,50.6,453.1,51.3z M451.9,51.3c0-0.5-0.3-0.9-1-0.9
				c-0.6,0-1,0.4-1,0.9c0,0.6,0.4,0.9,1,0.9C451.6,52.2,451.9,51.9,451.9,51.3z M450.2,48.8c0,0.5,0.3,0.8,0.8,0.8
				c0.5,0,0.8-0.3,0.8-0.8c0-0.5-0.3-0.8-0.8-0.8C450.5,48,450.2,48.3,450.2,48.8z"/>
		</g>
		<g>
			<g>
				<rect x="430.9" y="44" width="1" height="11.5"/>
			</g>
		</g>
	</g>
	<g>
		<g>
			<path d="M99.2,32c-0.4-1-0.8-1.9-1.4-2.8l0.7-0.8c0.2,0.3,0.4,0.7,0.7,1.3c0.3,0.6,0.6,1.3,0.8,2c0.3,0.7,0.4,1.4,0.5,2
				c0.2-0.9,0.5-1.8,0.8-2.7c0.3-0.9,0.6-1.8,1-2.6l0.7,0.6c-0.3,0.6-0.6,1.3-0.8,2.1c-0.3,0.8-0.6,1.6-0.8,2.4
				c-0.2,0.8-0.4,1.4-0.5,1.9h-0.9C99.9,34.1,99.6,33,99.2,32z"/>
		</g>
		<g>
			<path d="M107.3,32c-0.4-1-0.8-1.9-1.4-2.8l0.7-0.8c0.2,0.3,0.4,0.7,0.7,1.3c0.3,0.6,0.6,1.3,0.8,2c0.3,0.7,0.4,1.4,0.5,2
				c0.2-0.9,0.5-1.8,0.8-2.7c0.3-0.9,0.6-1.8,1-2.6l0.7,0.6c-0.3,0.6-0.6,1.3-0.8,2.1c-0.3,0.8-0.6,1.6-0.8,2.4
				c-0.2,0.8-0.4,1.4-0.5,1.9h-0.9C108,34.1,107.7,33,107.3,32z"/>
		</g>
		<g>
			<path d="M116.2,35.6l-0.7-0.2l1.1-2.8c-0.7-0.1-1.4-0.2-1.9-0.5c-0.5-0.3-0.8-0.6-0.8-1.1c0-0.3,0.1-0.5,0.2-0.9s0.3-0.6,0.5-0.9
				c0.2-0.3,0.5-0.6,0.7-0.8l0.8,0.5c-0.7,0.7-1.2,1.4-1.7,2c0.3,0.2,0.7,0.4,1.1,0.5c0.4,0.1,0.8,0.3,1.2,0.4l1.1-2.7l0.8,0.5
				L116.2,35.6z"/>
		</g>
		<g>
			<path d="M122.6,35.4l-1.1-6.6l1-0.3l0.9,6.9L122.6,35.4z"/>
		</g>
		<g>
			<path d="M130.5,29.9c0,0.6,0,1.1-0.1,1.5c-0.1,0.3-0.2,0.6-0.3,0.8c-0.2,0.2-0.4,0.3-0.7,0.4c-0.3,0.1-0.7,0.2-1.1,0.2
				c-0.3,0-0.6,0-0.9-0.1l0.5,2.8l-0.8,0l-1.2-6.6l1-0.3l0.5,3.1c0.3,0.1,0.6,0.1,1,0.1c0.3,0,0.6,0,0.9-0.1
				c0.3-0.1,0.5-0.1,0.7-0.3l0-2.8h0.8C130.5,29,130.5,29.5,130.5,29.9z"/>
		</g>
		<g>
			<path d="M133.9,34.7c-0.3-0.2-0.5-0.4-0.6-0.6c-0.2-0.3-0.2-0.6-0.2-0.9c0-0.3,0.1-0.6,0.2-0.9c0.2-0.3,0.4-0.5,0.6-0.6
				c0.3-0.2,0.6-0.2,0.9-0.2c0.3,0,0.6,0.1,0.9,0.2c0.3,0.2,0.5,0.4,0.6,0.6c0.2,0.3,0.2,0.6,0.2,0.9c0,0.3-0.1,0.6-0.2,0.9
				c-0.2,0.3-0.4,0.5-0.6,0.6c-0.3,0.2-0.6,0.2-0.9,0.2C134.5,34.9,134.2,34.9,133.9,34.7z M135.3,34c0.1-0.1,0.3-0.2,0.3-0.3
				c0.1-0.1,0.1-0.3,0.1-0.5c0-0.2,0-0.3-0.1-0.5c-0.1-0.1-0.2-0.3-0.3-0.3c-0.1-0.1-0.3-0.1-0.5-0.1c-0.2,0-0.3,0-0.5,0.1
				c-0.1,0.1-0.3,0.2-0.3,0.3c-0.1,0.1-0.1,0.3-0.1,0.5c0,0.2,0,0.3,0.1,0.5c0.1,0.1,0.2,0.3,0.3,0.3c0.1,0.1,0.3,0.1,0.5,0.1
				C135,34.1,135.1,34.1,135.3,34z"/>
		</g>
		<g>
			<path d="M140.6,34.7c-0.3-0.2-0.5-0.4-0.6-0.6c-0.2-0.3-0.2-0.6-0.2-0.9c0-0.3,0.1-0.6,0.2-0.9c0.2-0.3,0.4-0.5,0.6-0.6
				c0.3-0.2,0.6-0.2,0.9-0.2c0.3,0,0.6,0.1,0.9,0.2c0.3,0.2,0.5,0.4,0.6,0.6c0.2,0.3,0.2,0.6,0.2,0.9c0,0.3-0.1,0.6-0.2,0.9
				c-0.2,0.3-0.4,0.5-0.6,0.6c-0.3,0.2-0.6,0.2-0.9,0.2C141.2,34.9,140.9,34.9,140.6,34.7z M142,34c0.1-0.1,0.3-0.2,0.3-0.3
				c0.1-0.1,0.1-0.3,0.1-0.5c0-0.2,0-0.3-0.1-0.5c-0.1-0.1-0.2-0.3-0.3-0.3c-0.1-0.1-0.3-0.1-0.5-0.1c-0.2,0-0.3,0-0.5,0.1
				c-0.1,0.1-0.3,0.2-0.3,0.3c-0.1,0.1-0.1,0.3-0.1,0.5c0,0.2,0,0.3,0.1,0.5c0.1,0.1,0.2,0.3,0.3,0.3c0.1,0.1,0.3,0.1,0.5,0.1
				C141.7,34.1,141.8,34.1,142,34z"/>
		</g>
		<g>
			<path d="M147.3,34.7c-0.3-0.2-0.5-0.4-0.6-0.6c-0.2-0.3-0.2-0.6-0.2-0.9c0-0.3,0.1-0.6,0.2-0.9c0.2-0.3,0.4-0.5,0.6-0.6
				c0.3-0.2,0.6-0.2,0.9-0.2c0.3,0,0.6,0.1,0.9,0.2c0.3,0.2,0.5,0.4,0.6,0.6c0.2,0.3,0.2,0.6,0.2,0.9c0,0.3-0.1,0.6-0.2,0.9
				c-0.2,0.3-0.4,0.5-0.6,0.6c-0.3,0.2-0.6,0.2-0.9,0.2C147.9,34.9,147.6,34.9,147.3,34.7z M148.7,34c0.1-0.1,0.3-0.2,0.3-0.3
				c0.1-0.1,0.1-0.3,0.1-0.5c0-0.2,0-0.3-0.1-0.5c-0.1-0.1-0.2-0.3-0.3-0.3s-0.3-0.1-0.5-0.1c-0.2,0-0.3,0-0.5,0.1
				c-0.1,0.1-0.3,0.2-0.3,0.3c-0.1,0.1-0.1,0.3-0.1,0.5c0,0.2,0,0.3,0.1,0.5c0.1,0.1,0.2,0.3,0.3,0.3c0.1,0.1,0.3,0.1,0.5,0.1
				C148.4,34.1,148.5,34.1,148.7,34z"/>
		</g>
	</g>
	<g>
		<path d="M168.8,30.9c0,0.3-0.1,0.6-0.2,0.9c-0.1,0.2-0.3,0.4-0.6,0.5c-0.2,0.1-0.5,0.2-0.8,0.2c-0.2,0-0.5,0-0.7-0.1
			c-0.2-0.1-0.5-0.2-0.7-0.3c-0.2,0.2-0.4,0.3-0.6,0.3c-0.3,0.1-0.5,0.1-0.8,0.1c-0.3,0-0.6,0-0.9-0.1l0.5,2.8l-0.8,0l-1.2-6.7
			l1-0.3l0.5,3.1c0.4,0.1,0.7,0.1,1,0.1c0.4,0,0.8-0.1,1.1-0.2l0-2.8h0.8l0.1,2.9c0.3,0.1,0.7,0.2,1.1,0.2c0.2,0,0.4,0,0.7-0.1
			l-0.2-3.1h0.9L168.8,30.9z"/>
		<path d="M172.5,35.3c-0.3-0.1-0.4-0.2-0.5-0.5c-0.1-0.2-0.2-0.5-0.2-0.9c0-0.1,0-0.3,0-0.5s0-0.4,0-0.6h0.6v1.5
			c0.2,0.1,0.6,0.2,1.2,0.2c0.4,0,0.7,0,1.1-0.1c0.4-0.1,0.7-0.1,0.9-0.2l-0.5-3.8l0.8-0.2l0.2,2.6c0,0.3,0.1,0.6,0.1,0.8
			c0.1,0.2,0.2,0.4,0.4,0.5s0.5,0.2,0.9,0.2h0.5v0.9h-0.5c-0.4,0-0.7-0.1-1-0.2c-0.3-0.1-0.5-0.3-0.7-0.4c-0.5,0.5-1.3,0.8-2.4,0.8
			C173.1,35.4,172.7,35.4,172.5,35.3z"/>
		<path d="M177.6,34.4h3.2v0.9h-3.2V34.4z"/>
		<path d="M184.5,32c-0.5-0.2-0.9-0.3-1.1-0.4s-0.5-0.1-0.6-0.1c-0.1,0-0.2,0-0.3,0.1c-0.1,0.1-0.2,0.2-0.3,0.3
			c-0.1,0.1-0.2,0.3-0.4,0.4l-0.3-0.8c0.2-0.2,0.4-0.4,0.6-0.5c0.2-0.1,0.3-0.2,0.4-0.3c0.1-0.1,0.3-0.1,0.4-0.1
			c0.2,0,0.3,0,0.6,0.1s0.5,0.2,1,0.3c0,0,0.1,0,0.4,0.1c0.5,0.2,0.8,0.3,1,0.3c0.2,0.1,0.4,0.1,0.5,0.1c0.2,0,0.5,0,1,0l-0.1,0.9
			l-1.3-0.1c-0.2,0.2-0.4,0.4-0.7,0.7c-0.4,0.5-0.8,0.8-1.1,1.1c-0.3,0.3-0.6,0.5-1.1,0.7s-0.9,0.3-1.5,0.3h-1.1v-0.9h1.2
			c0.5,0,0.9-0.1,1.2-0.2s0.6-0.3,0.8-0.5c0.2-0.2,0.5-0.5,0.9-0.8c0.3-0.3,0.5-0.5,0.6-0.6l0.2-0.1l-0.2,0L184.5,32z"/>
		<path d="M188.7,28.5l0.9-0.1l0,6.9l-0.7,0L188.7,28.5z"/>
		<path d="M191.9,36.5c0.5,0,0.9,0,1.2-0.1c0.3-0.1,0.5-0.2,0.7-0.4c0.2-0.2,0.3-0.5,0.3-0.9c-0.6,0.1-1,0.1-1.5,0.1
			c-0.4,0-0.8-0.1-1-0.2c-0.3-0.1-0.4-0.3-0.5-0.6s-0.2-0.6-0.2-1c0-0.4,0-0.9,0.1-1.5c0.1-0.5,0.2-0.8,0.5-1.1
			c0.3-0.2,0.7-0.3,1.1-0.3c0.5,0,0.9,0.1,1.2,0.4s0.5,0.6,0.7,1.2c0.2,0.5,0.2,1.2,0.2,2.1c0,0.8-0.1,1.4-0.3,1.8
			c-0.2,0.5-0.5,0.8-0.9,1c-0.4,0.2-0.9,0.3-1.6,0.3c-0.3,0-0.7,0-1.2-0.1v-0.9C191.3,36.5,191.7,36.5,191.9,36.5z M191.8,33.9
			c0.1,0.2,0.2,0.3,0.4,0.3c0.2,0.1,0.4,0.1,0.7,0.1h1.3c0-0.7,0-1.2-0.1-1.6c-0.1-0.4-0.2-0.7-0.5-0.9c-0.2-0.2-0.6-0.3-1-0.3
			c-0.1,0-0.2,0-0.3,0s-0.2,0-0.4,0.1l0,0.3c-0.1,0.6-0.1,1-0.1,1.2C191.7,33.5,191.7,33.8,191.8,33.9z"/>
		<path d="M198.4,35c-0.2-0.1-0.3-0.3-0.3-0.6c0-0.1,0-0.3,0.1-0.5c0.1-0.2,0.2-0.7,0.4-1.2l0.2-0.6l0.5,0.1l-0.6,2l0.8,0.2
			l-0.3,0.9C198.8,35.2,198.6,35.1,198.4,35z"/>
		<path d="M205.5,29.7c0,0.7,0,1.1-0.1,1.5c-0.1,0.3-0.2,0.6-0.3,0.8c-0.2,0.2-0.4,0.3-0.8,0.4c-0.3,0.1-0.7,0.2-1.1,0.2
			c-0.3,0-0.6,0-0.9-0.1l0.5,2.8l-0.8,0l-1.2-6.7l1-0.3l0.5,3.1c0.3,0.1,0.6,0.1,1,0.1c0.3,0,0.6,0,0.9-0.1c0.3-0.1,0.5-0.1,0.7-0.3
			l0-2.8h0.8C205.5,28.8,205.5,29.3,205.5,29.7z"/>
		<path d="M214.4,34.4v0.9H214c-0.5,0-0.9-0.1-1.2-0.2s-0.5-0.4-0.7-0.7l-0.2,0.5l-3,0l0-0.6c0-0.3,0-0.6,0-0.8
			c0-0.7,0.1-1.2,0.3-1.5c0.2-0.3,0.5-0.6,0.8-0.8c0.4-0.2,1-0.3,1.8-0.5l0-1l0.9-0.1l0,4c0,0.3,0.1,0.6,0.4,0.7
			c0.2,0.2,0.6,0.2,1.1,0.2H214.4z M211.8,33.9l-0.1-2.5c-0.7,0.2-1.2,0.3-1.5,0.5c-0.3,0.1-0.5,0.3-0.6,0.5
			c-0.1,0.2-0.2,0.5-0.2,0.9c0,0.2,0,0.4,0,0.7L211.8,33.9z"/>
		<path d="M214,34.4h3.2v0.9H214V34.4z"/>
		<path d="M216.7,34.4l1.5,0c-0.2-0.1-0.3-0.3-0.4-0.6c-0.1-0.3-0.2-0.6-0.2-0.9c0-0.4,0.1-0.8,0.3-1.2c0.2-0.4,0.5-0.7,0.8-1
			s0.7-0.4,1-0.4c0.4,0,0.7,0.1,0.9,0.3s0.4,0.5,0.5,0.9c0.1,0.4,0.2,0.9,0.2,1.6v1.2h0.8v0.9h-0.5c-0.3,0-0.6,0-1.1-0.1
			c-0.4-0.1-0.8-0.2-1.1-0.3c-0.3,0.2-0.7,0.3-1.1,0.3c-0.4,0.1-0.8,0.1-1.2,0.1h-0.5V34.4z M218.7,28l0.8,0.7l-0.8,0.7l-0.8-0.7
			L218.7,28z M218.5,33.5c0.2,0.2,0.4,0.4,0.8,0.5c0.3,0.1,0.8,0.2,1.3,0.2v-1.1c0-0.6-0.1-1.1-0.2-1.4c-0.2-0.3-0.4-0.5-0.8-0.5
			c-0.1,0-0.3,0.1-0.5,0.2c-0.2,0.1-0.4,0.3-0.5,0.6c-0.1,0.2-0.2,0.5-0.2,0.9C218.2,33.1,218.3,33.3,218.5,33.5z M220.4,28l0.8,0.7
			l-0.8,0.7l-0.8-0.7L220.4,28z"/>
		<path d="M223.1,34.3c0.3,0,0.5-0.1,0.7-0.2l0-2.9h0.7l0,2.8c0.2,0.1,0.4,0.1,0.6,0.2c0.2,0,0.5,0.1,0.8,0.1h0.5v0.9H226
			c-0.3,0-0.6,0-1-0.1c-0.3-0.1-0.6-0.2-0.8-0.4c-0.3,0.2-0.6,0.3-0.9,0.4s-0.7,0.1-1.2,0.1h-0.5v-0.9h0.5
			C222.5,34.4,222.8,34.3,223.1,34.3z M224.1,36.7l0.8,0.8l-0.8,0.8l-0.8-0.8L224.1,36.7z"/>
		<path d="M226,34.4h1.5c0.1-0.2,0.2-0.4,0.2-0.6c0-0.2,0.1-0.4,0.1-0.7l0-0.2l-0.1-4.6l0.9-0.1l0,4.5c0.5-0.6,1-1.1,1.5-1.4
			s1.1-0.5,1.7-0.5c0.4,0,0.7,0.1,1,0.2c0.3,0.1,0.5,0.4,0.7,0.7c0.2,0.3,0.3,0.8,0.3,1.3c0,0.6-0.1,1-0.3,1.4
			c-0.2,0.3-0.5,0.6-1.1,0.7c-0.5,0.2-1.3,0.2-2.3,0.2l-4.2,0V34.4z M233,32.1c-0.4-0.3-0.8-0.5-1.3-0.5c-0.4,0-0.9,0.1-1.3,0.4
			c-0.4,0.2-0.9,0.6-1.2,1c-0.4,0.4-0.7,0.9-1,1.4h2.1c0.4,0,0.7,0,1,0c0.3,0,0.6,0,0.9-0.1c0.4,0,0.7-0.2,0.8-0.4
			c0.1-0.2,0.2-0.5,0.2-0.8V32.1z"/>
		<path d="M237.1,35c-0.2-0.1-0.3-0.3-0.3-0.6c0-0.1,0-0.3,0.1-0.5c0.1-0.2,0.2-0.7,0.4-1.2l0.2-0.6l0.5,0.1l-0.6,2l0.8,0.2
			l-0.3,0.9C237.6,35.2,237.3,35.1,237.1,35z"/>
		<path d="M240.5,35.2l-1.1-6.7l1-0.3l0.9,7L240.5,35.2z"/>
		<path d="M243.6,35.2l-1.1-6.7l1-0.3l0.9,7L243.6,35.2z"/>
		<path d="M250.1,32.7c-0.6,0-1.1,0.1-1.7,0.1c-0.6,0-1.2,0-1.6-0.1l0.4,2.6l-0.8,0l-1.1-6l1-0.3l0.5,2.8l1.2,0
			c-0.1-0.2-0.1-0.5-0.2-0.8c-0.1-0.3-0.1-0.5-0.1-0.7c0-0.6,0.2-1.1,0.6-1.4c0.4-0.3,0.9-0.5,1.5-0.5c0.3,0,0.7,0,1.2,0.1v1
			c-0.3,0-0.6,0-1,0c-0.6,0-1.1,0-1.5,0.1l0.3,2.2c0.9,0,1.8-0.1,2.7-0.2l-0.1,1C251.2,32.5,250.7,32.6,250.1,32.7z"/>
		<path d="M261.3,32.2c0-0.3-0.1-0.5-0.3-0.6c-0.1-0.1-0.4-0.3-0.8-0.4l-1.7-0.6l0.3-1.4l3.6-1l-0.1,0.9l-3.3,0.9l1.2,0.4
			c0.5,0.2,0.9,0.4,1.1,0.5c0.2,0.2,0.4,0.4,0.5,0.7s0.1,0.8,0.1,1.6l0,0.4c0,0.3,0,0.6-0.1,0.8c-0.1,0.2-0.2,0.3-0.3,0.5
			c-0.2,0.1-0.4,0.2-0.7,0.3c-0.5,0.1-1,0.2-1.7,0.3c-0.7,0.1-1.3,0.1-1.8,0.1c-0.7,0-1.2-0.1-1.5-0.3c-0.4-0.2-0.6-0.5-0.8-0.8
			c-0.2-0.3-0.2-0.8-0.2-1.3c0-0.3,0-0.7,0.1-1.3h0.7c0,0.1,0,0.3,0,0.5c0,0.3,0,0.5,0,0.6c0,0.3,0.1,0.6,0.2,0.9s0.3,0.4,0.7,0.5
			s0.8,0.2,1.4,0.2c0.5,0,0.9,0,1.4-0.1c0.5-0.1,0.9-0.1,1.3-0.2c0.4-0.1,0.7-0.1,0.9-0.2C261.4,33.1,261.4,32.5,261.3,32.2z"/>
		<path d="M264.6,29.7l0,5.3c0.4,0,0.7,0,1,0c0.2,0,0.4-0.1,0.6-0.1c0.2-0.1,0.3-0.2,0.5-0.3l-0.1-6l0.9-0.1l0,5.5
			c0.2,0.1,0.4,0.3,0.7,0.4c0.3,0.1,0.6,0.1,0.9,0.1h0.5v0.9H269c-0.4,0-0.7-0.1-1-0.2c-0.3-0.1-0.6-0.3-0.8-0.5
			c-0.1,0.3-0.2,0.5-0.4,0.7c-0.2,0.2-0.5,0.3-1,0.5s-1.1,0.2-1.9,0.2l-0.2-6.1L264.6,29.7z"/>
		<path d="M269,34.4h3.2v0.9H269V34.4z"/>
		<path d="M275.2,32c0,0.6,0,1.1,0,1.5c0,0.4-0.1,0.7-0.4,1c-0.3,0.3-0.7,0.5-1.1,0.6c-0.5,0.1-1,0.2-1.5,0.2h-0.5v-0.9h0.5
			c0.5,0,0.9,0,1.4-0.1c0.4-0.1,0.8-0.2,1-0.3l-0.3-3.2l0.9-0.2C275.2,30.9,275.2,31.4,275.2,32z M272.7,36.6l0.7,0.7l-0.7,0.7
			l-0.7-0.7L272.7,36.6z M273.5,37.8l0.7,0.7l-0.7,0.7l-0.7-0.7L273.5,37.8z M274.3,36.6l0.7,0.7l-0.7,0.7l-0.7-0.7L274.3,36.6z"/>
		<path d="M279.1,35c-0.2-0.1-0.3-0.3-0.3-0.6c0-0.1,0-0.3,0.1-0.5c0.1-0.2,0.2-0.7,0.4-1.2l0.2-0.6l0.5,0.1l-0.6,2l0.8,0.2
			l-0.3,0.9C279.6,35.2,279.3,35.1,279.1,35z"/>
		<path d="M281.4,36.5c0.6,0,1.1-0.1,1.5-0.4s0.7-0.7,1-1.3l-0.5-3.4l0.9-0.2c0.1,1.3,0.2,2.4,0.2,3.2c0,0.6-0.1,1.1-0.4,1.6
			s-0.6,0.8-1,1.1c-0.4,0.3-0.9,0.4-1.4,0.4c-0.3,0-0.6,0-0.9-0.1v-0.9C280.9,36.5,281.2,36.5,281.4,36.5z"/>
		<path d="M288.5,35.2h-0.5c-0.5,0-0.9-0.1-1.3-0.2s-0.5-0.4-0.7-0.7s-0.2-0.7-0.2-1.1l-0.1-4.7l0.9-0.1v5.5
			c0.3,0.3,0.8,0.5,1.4,0.5h0.5V35.2z"/>
		<path d="M288.1,34.4h3.2v0.9h-3.2V34.4z"/>
		<path d="M290.8,34.4h3.2v0.9h-3.2V34.4z"/>
		<path d="M293.6,34.4l1.5,0c0-0.5,0.1-1,0.2-1.5c0.2-0.5,0.4-1,0.7-1.5c0.3-0.5,0.8-0.8,1.3-1.1c0.3,0.3,0.5,0.6,0.7,1
			c0.2,0.4,0.3,0.7,0.4,1.1c0.1,0.4,0.2,0.7,0.2,1.1c0,0.4-0.1,0.7-0.3,0.9c-0.2,0.3-0.5,0.5-1,0.6c-0.4,0.1-0.9,0.2-1.5,0.2
			c0.1,0.3,0.2,0.5,0.5,0.8c0.2,0.2,0.5,0.4,0.8,0.5c0.3,0.1,0.7,0.2,1,0.2v-0.3c0-0.6,0.1-1.1,0.2-1.4s0.4-0.5,0.6-0.6
			s0.7-0.1,1.3-0.1h0.4v0.9h-1.9l0,2.3c-0.7,0-1.3-0.1-1.9-0.2c-0.5-0.2-0.9-0.4-1.2-0.7c-0.3-0.3-0.5-0.8-0.6-1.3l-1.6,0V34.4z
			 M297.2,34.2c0.3-0.1,0.6-0.3,0.8-0.6c0-0.4-0.1-0.8-0.3-1.2c-0.2-0.4-0.3-0.8-0.6-1.1c-0.2,0.1-0.4,0.4-0.6,0.6
			c-0.2,0.3-0.4,0.6-0.5,1s-0.2,0.9-0.2,1.4C296.4,34.4,296.9,34.4,297.2,34.2z"/>
		<path d="M303.6,32c0,0.6,0,1.1,0,1.5c0,0.4-0.1,0.7-0.4,1s-0.6,0.5-1.1,0.6s-0.9,0.2-1.5,0.2h-0.5v-0.9h0.5c0.5,0,0.9,0,1.3-0.1
			c0.4-0.1,0.7-0.2,1-0.4l-0.3-3.2l0.9-0.2C303.6,30.9,303.6,31.4,303.6,32z M302.2,36.4l0.8,0.8l-0.8,0.8l-0.8-0.8L302.2,36.4z"/>
		<path d="M307.6,33.4c-0.3-0.4-0.6-0.9-0.7-1.4c-0.2-0.5-0.3-1-0.3-1.6l0-0.3c1.2-0.2,2.1-0.3,2.8-0.3c0.7,0,1.2,0.1,1.6,0.3
			c0.4,0.2,0.5,0.5,0.5,0.9c0,0.3-0.1,0.6-0.3,1c-0.2,0.4-0.4,0.7-0.7,1.1c-0.3,0.4-0.6,0.7-0.9,1c0.3,0.1,0.6,0.2,1,0.3
			s0.8,0.1,1.3,0.1h0.5v0.9H312c-0.9,0-1.6-0.1-2.2-0.3c-0.6-0.2-1.2-0.6-1.6-1c-0.3,0.3-0.5,0.6-0.7,0.9c-0.2,0.3-0.2,0.6-0.2,0.8
			c0,0.4,0.2,0.8,0.6,1c0.4,0.2,0.9,0.3,1.5,0.3c0.6,0,1.2-0.1,1.8-0.3v0.9c-0.7,0.3-1.4,0.4-2.1,0.4c-0.5,0-0.9-0.1-1.3-0.2
			c-0.4-0.2-0.6-0.4-0.9-0.7c-0.2-0.3-0.3-0.7-0.3-1.2C306.6,35,306.9,34.2,307.6,33.4z M310.3,32.4c0.4-0.5,0.6-1,0.7-1.4
			c-0.2-0.1-0.5-0.1-0.8-0.2c-0.3,0-0.6-0.1-0.8-0.1c-0.4,0-1.1,0.1-2.1,0.2c0,0.5,0.1,0.9,0.3,1.2c0.2,0.3,0.3,0.6,0.6,0.8
			s0.5,0.5,0.8,0.7C309.5,33.3,309.9,32.8,310.3,32.4z"/>
		<path d="M312,34.4h3.2v0.9H312V34.4z"/>
		<path d="M314.7,34.4h1.5c0.1-0.2,0.2-0.4,0.2-0.6c0-0.2,0.1-0.4,0.1-0.7l0-0.2l-0.1-4.6l0.9-0.1l0,4.5c0.5-0.6,1-1.1,1.5-1.4
			c0.5-0.3,1.1-0.5,1.7-0.5c0.4,0,0.7,0.1,1,0.2c0.3,0.1,0.5,0.4,0.7,0.7c0.2,0.3,0.3,0.8,0.3,1.3c0,0.6-0.1,1-0.3,1.4
			c-0.2,0.3-0.5,0.6-1.1,0.7c-0.5,0.2-1.3,0.2-2.3,0.2l-4.2,0V34.4z M321.8,32.1c-0.4-0.3-0.8-0.5-1.3-0.5c-0.4,0-0.9,0.1-1.3,0.4
			c-0.4,0.2-0.9,0.6-1.2,1s-0.7,0.9-1,1.4h2.1c0.4,0,0.7,0,1,0c0.3,0,0.6,0,0.9-0.1c0.4,0,0.7-0.2,0.8-0.4c0.1-0.2,0.2-0.5,0.2-0.8
			V32.1z"/>
		<path d="M326.7,35.2h-0.5c-0.5,0-0.9-0.1-1.3-0.2s-0.5-0.4-0.7-0.7s-0.2-0.7-0.2-1.1l-0.1-4.7l0.9-0.1v5.5
			c0.3,0.3,0.8,0.5,1.4,0.5h0.5V35.2z"/>
		<path d="M326.2,34.4l1.5,0c-0.2-0.1-0.3-0.3-0.4-0.6c-0.1-0.3-0.2-0.6-0.2-0.9c0-0.4,0.1-0.8,0.3-1.2c0.2-0.4,0.5-0.7,0.8-1
			c0.3-0.2,0.7-0.4,1-0.4c0.4,0,0.7,0.1,0.9,0.3s0.4,0.5,0.5,0.9c0.1,0.4,0.2,0.9,0.2,1.6v1.2h0.8v0.9h-0.5c-0.3,0-0.6,0-1.1-0.1
			c-0.4-0.1-0.8-0.2-1.1-0.3c-0.3,0.2-0.7,0.3-1.1,0.3s-0.8,0.1-1.2,0.1h-0.5V34.4z M328.2,28l0.8,0.7l-0.8,0.7l-0.8-0.7L328.2,28z
			 M328,33.5c0.2,0.2,0.4,0.4,0.8,0.5c0.3,0.1,0.8,0.2,1.3,0.2v-1.1c0-0.6-0.1-1.1-0.2-1.4c-0.2-0.3-0.4-0.5-0.8-0.5
			c-0.1,0-0.3,0.1-0.5,0.2c-0.2,0.1-0.4,0.3-0.5,0.6c-0.1,0.2-0.2,0.5-0.2,0.9C327.7,33.1,327.8,33.3,328,33.5z M329.9,28l0.8,0.7
			l-0.8,0.7l-0.8-0.7L329.9,28z"/>
		<path d="M331.1,34.4h3.2v0.9h-3.2V34.4z"/>
		<path d="M337.3,32c0,0.6,0,1.1,0,1.5c0,0.4-0.1,0.7-0.4,1c-0.3,0.3-0.6,0.5-1.1,0.6c-0.5,0.1-0.9,0.2-1.5,0.2h-0.5v-0.9h0.5
			c0.5,0,0.9,0,1.3-0.1c0.4-0.1,0.7-0.2,1-0.4l-0.3-3.2l0.9-0.2C337.2,30.9,337.2,31.4,337.3,32z M335.6,28.5l0.8,0.7l-0.8,0.7
			l-0.8-0.7L335.6,28.5z M337.3,28.5l0.8,0.7l-0.8,0.7l-0.8-0.7L337.3,28.5z"/>
		<path d="M340.4,36.5c0.6,0,1.1-0.1,1.5-0.4c0.4-0.3,0.7-0.7,1-1.3l-0.5-3.4l0.9-0.2c0.1,1.3,0.2,2.4,0.2,3.2
			c0,0.6-0.1,1.1-0.4,1.6c-0.2,0.5-0.6,0.8-1,1.1s-0.9,0.4-1.4,0.4c-0.3,0-0.6,0-0.9-0.1v-0.9C339.9,36.5,340.1,36.5,340.4,36.5z
			 M342.6,28.5l0.8,0.8l-0.8,0.8l-0.8-0.8L342.6,28.5z"/>
		<path d="M344.8,28.5l0.9-0.1l0,6.9l-0.7,0L344.8,28.5z"/>
		<path d="M350.2,35.3c-0.3-0.1-0.4-0.2-0.5-0.5c-0.1-0.2-0.2-0.5-0.2-0.9c0-0.1,0-0.3,0-0.5s0-0.4,0-0.6h0.6v1.5
			c0.2,0.1,0.6,0.2,1.2,0.2c0.4,0,0.7,0,1.1-0.1c0.4-0.1,0.7-0.1,0.9-0.2l-0.5-3.8l0.8-0.2l0.2,2.6c0,0.3,0.1,0.6,0.1,0.8
			c0.1,0.2,0.2,0.4,0.4,0.5c0.2,0.1,0.5,0.2,0.9,0.2h0.5v0.9h-0.5c-0.4,0-0.7-0.1-1-0.2c-0.3-0.1-0.5-0.3-0.7-0.4
			c-0.5,0.5-1.3,0.8-2.4,0.8C350.8,35.4,350.4,35.4,350.2,35.3z"/>
		<path d="M355.3,34.4h3.2v0.9h-3.2V34.4z"/>
		<path d="M358.1,34.4h3.2v0.9h-3.2V34.4z"/>
		<path d="M366.7,32.6c-0.2,0.3-0.4,0.6-0.6,0.9c-0.3,0.3-0.6,0.5-0.9,0.8c0.4,0,0.8,0.1,1.1,0.1c0.3,0,0.7,0,1.1,0h0.5v0.9h-0.5
			c-0.6,0-1.2-0.1-1.8-0.2c-0.6-0.1-1-0.3-1.4-0.4c-0.3,0.2-0.8,0.3-1.3,0.4c-0.5,0.1-1.1,0.2-1.7,0.2h-0.5v-0.9h0.5
			c0.4,0,0.8,0,1.3,0c0.4,0,0.8-0.1,1.1-0.1l-2-2.4l0.4-1.2l0.3,0c0.5-0.1,1-0.1,1.3-0.1c0.3,0,0.7,0,1,0c0.8,0,1.3,0.1,1.8,0.3
			c0.4,0.2,0.6,0.5,0.6,1C366.9,32,366.9,32.3,366.7,32.6z M365.5,31.4c-0.4,0-0.8-0.1-1.2-0.1c-0.3,0-0.7,0-1,0
			c-0.3,0-0.7,0.1-0.9,0.1l2.1,2.6c0.5-0.3,0.9-0.7,1.3-1.1c0.3-0.4,0.6-0.9,0.7-1.3C366.1,31.5,365.8,31.4,365.5,31.4z"/>
		<path d="M370.8,32c0,0.6,0,1.1,0,1.5c0,0.4-0.1,0.7-0.4,1s-0.6,0.5-1.1,0.6s-0.9,0.2-1.5,0.2h-0.5v-0.9h0.5c0.5,0,0.9,0,1.3-0.1
			c0.4-0.1,0.7-0.2,1-0.4l-0.3-3.2l0.9-0.2C370.7,30.9,370.7,31.4,370.8,32z M369.3,36.4l0.8,0.8l-0.8,0.8l-0.8-0.8L369.3,36.4z"/>
		<path d="M373.9,35c-0.2-0.1-0.3-0.3-0.3-0.6c0-0.1,0-0.3,0.1-0.5c0.1-0.2,0.2-0.7,0.4-1.2l0.2-0.6l0.5,0.1l-0.6,2l0.8,0.2
			l-0.3,0.9C374.3,35.2,374.1,35.1,373.9,35z"/>
		<path d="M376.3,34.2c0.1-0.3,0.1-0.8,0.3-1.3h0.6c-0.2,0.9-0.4,1.6-0.4,2.1c0,0.6,0.2,1,0.5,1.3c0.4,0.3,0.9,0.4,1.5,0.4
			c0.4,0,0.8,0,1.3-0.1c0.5-0.1,1-0.2,1.4-0.3l-0.2-1.1h-2l0.2-0.8h3.5v0.9h-0.9c0,0.4,0,0.6,0,0.8c0,0.2-0.1,0.4-0.2,0.5
			c-0.1,0.1-0.2,0.3-0.4,0.4c-0.3,0.2-0.7,0.3-1.3,0.4s-1.1,0.2-1.6,0.2c-0.6,0-1.1-0.1-1.4-0.3c-0.4-0.2-0.6-0.4-0.8-0.8
			c-0.2-0.4-0.3-0.8-0.3-1.4C376.3,34.8,376.3,34.5,376.3,34.2z"/>
		<path d="M382.8,34.4h3.2v0.9h-3.2V34.4z"/>
		<path d="M388.9,32c0,0.6,0,1.1,0,1.5c0,0.4-0.1,0.7-0.4,1c-0.3,0.3-0.6,0.5-1.1,0.6c-0.5,0.1-0.9,0.2-1.5,0.2h-0.5v-0.9h0.5
			c0.5,0,0.9,0,1.3-0.1c0.4-0.1,0.7-0.2,1-0.4l-0.3-3.2l0.9-0.2C388.8,30.9,388.9,31.4,388.9,32z M388.1,28.3l0.8,0.8l-0.8,0.8
			l-0.8-0.8L388.1,28.3z"/>
		<path d="M393.1,35.2h-0.5c-0.5,0-0.9-0.1-1.3-0.2s-0.5-0.4-0.7-0.7s-0.2-0.7-0.2-1.1l-0.1-4.7l0.9-0.1v5.5
			c0.3,0.3,0.8,0.5,1.4,0.5h0.5V35.2z"/>
		<path d="M392.6,34.4l1.5,0c-0.2-0.1-0.3-0.3-0.4-0.6c-0.1-0.3-0.2-0.6-0.2-0.9c0-0.4,0.1-0.8,0.3-1.2c0.2-0.4,0.5-0.7,0.8-1
			c0.3-0.2,0.7-0.4,1-0.4c0.4,0,0.7,0.1,0.9,0.3s0.4,0.5,0.5,0.9c0.1,0.4,0.2,0.9,0.2,1.6v1.2h0.8v0.9h-0.5c-0.3,0-0.6,0-1.1-0.1
			c-0.4-0.1-0.8-0.2-1.1-0.3c-0.3,0.2-0.7,0.3-1.1,0.3s-0.8,0.1-1.2,0.1h-0.5V34.4z M394.6,28l0.8,0.7l-0.8,0.7l-0.8-0.7L394.6,28z
			 M394.4,33.5c0.2,0.2,0.4,0.4,0.8,0.5c0.3,0.1,0.8,0.2,1.3,0.2v-1.1c0-0.6-0.1-1.1-0.2-1.4c-0.2-0.3-0.4-0.5-0.8-0.5
			c-0.1,0-0.3,0.1-0.5,0.2c-0.2,0.1-0.4,0.3-0.5,0.6c-0.1,0.2-0.2,0.5-0.2,0.9C394.1,33.1,394.2,33.3,394.4,33.5z M396.3,28l0.8,0.7
			l-0.8,0.7l-0.8-0.7L396.3,28z"/>
		<path d="M397.5,34.4h3.2v0.9h-3.2V34.4z"/>
		<path d="M402,28.5l0.9-0.1l0,4.9c0,0.4-0.1,0.8-0.2,1.1c-0.1,0.3-0.4,0.5-0.7,0.7s-0.7,0.2-1.3,0.2h-0.5v-0.9h0.5
			c0.3,0,0.6,0,0.9-0.1c0.3-0.1,0.5-0.2,0.6-0.3L402,28.5z"/>
		<path d="M407.1,35.2h-0.5c-0.5,0-0.9-0.1-1.3-0.2s-0.5-0.4-0.7-0.7s-0.2-0.7-0.2-1.1l-0.1-4.7l0.9-0.1v5.5
			c0.3,0.3,0.8,0.5,1.4,0.5h0.5V35.2z"/>
		<path d="M406.6,34.4h3.2v0.9h-3.2V34.4z"/>
		<path d="M409.3,34.4h1.5c0.1-0.2,0.2-0.4,0.2-0.6c0-0.2,0.1-0.4,0.1-0.7l0-0.2l-0.1-4.6l0.9-0.1l0,4.5c0.5-0.6,1-1.1,1.5-1.4
			c0.5-0.3,1.1-0.5,1.7-0.5c0.4,0,0.7,0.1,1,0.2c0.3,0.1,0.5,0.4,0.7,0.7c0.2,0.3,0.3,0.8,0.3,1.3c0,0.6-0.1,1-0.3,1.4
			c-0.2,0.3-0.5,0.6-1.1,0.7c-0.5,0.2-1.3,0.2-2.3,0.2l-4.2,0V34.4z M416.4,32.1c-0.4-0.3-0.8-0.5-1.3-0.5c-0.4,0-0.9,0.1-1.3,0.4
			c-0.4,0.2-0.9,0.6-1.2,1s-0.7,0.9-1,1.4h2.1c0.4,0,0.7,0,1,0c0.3,0,0.6,0,0.9-0.1c0.4,0,0.7-0.2,0.8-0.4c0.1-0.2,0.2-0.5,0.2-0.8
			V32.1z"/>
		<path d="M425.5,31.5l0.8-0.3l0,0.2c0.1,0.9,0.2,1.7,0.3,2.4s0.1,1.3,0.1,1.7c0,0.4-0.2,0.8-0.6,1.1s-0.9,0.5-1.5,0.6
			c-0.5,0.1-1,0.2-1.3,0.2c-0.8,0-1.3-0.2-1.7-0.5c-0.4-0.4-0.6-0.9-0.6-1.7c0-0.2,0-0.4,0-0.6c0-0.2,0.1-0.7,0.2-1.4h0.6
			c-0.1,0.6-0.1,1-0.2,1.2s0,0.4,0,0.6c0,0.5,0.2,0.9,0.5,1.1c0.3,0.2,0.8,0.3,1.4,0.3c0.4,0,0.8-0.1,1.2-0.2
			c0.4-0.1,0.9-0.3,1.3-0.5L425.5,31.5z M423.4,30.1l0.8,0.8l-0.8,0.8l-0.8-0.8L423.4,30.1z"/>
		<path d="M430.8,35.2h-0.5c-0.5,0-0.9-0.1-1.3-0.2s-0.5-0.4-0.7-0.7s-0.2-0.7-0.2-1.1l-0.1-4.7l0.9-0.1v5.5
			c0.3,0.3,0.8,0.5,1.4,0.5h0.5V35.2z"/>
		<path d="M430.4,34.4h3.2v0.9h-3.2V34.4z"/>
		<path d="M436.5,32c0,0.6,0,1.1,0,1.5c0,0.4-0.1,0.7-0.4,1s-0.6,0.5-1.1,0.6s-0.9,0.2-1.5,0.2h-0.5v-0.9h0.5c0.5,0,0.9,0,1.3-0.1
			c0.4-0.1,0.7-0.2,1-0.4l-0.3-3.2l0.9-0.2C436.5,30.9,436.5,31.4,436.5,32z M435.1,36.4l0.8,0.8l-0.8,0.8l-0.8-0.8L435.1,36.4z"/>
		<path d="M440.7,35.2h-0.5c-0.5,0-0.9-0.1-1.3-0.2s-0.5-0.4-0.7-0.7s-0.2-0.7-0.2-1.1l-0.1-4.7l0.9-0.1v5.5
			c0.3,0.3,0.8,0.5,1.4,0.5h0.5V35.2z"/>
		<path d="M440.2,34.4h3.2v0.9h-3.2V34.4z"/>
		<path d="M444.5,34.3c0.3,0,0.5-0.1,0.7-0.2l0-2.9h0.7l0,2.8c0.2,0.1,0.4,0.1,0.6,0.2s0.5,0.1,0.8,0.1h0.5v0.9h-0.5
			c-0.3,0-0.6,0-1-0.1c-0.3-0.1-0.6-0.2-0.8-0.4c-0.3,0.2-0.6,0.3-0.9,0.4s-0.7,0.1-1.2,0.1H443v-0.9h0.5
			C443.9,34.4,444.2,34.3,444.5,34.3z M444.5,36.6l0.8,0.7l-0.8,0.7l-0.8-0.7L444.5,36.6z M446.2,36.6l0.8,0.7l-0.8,0.7l-0.8-0.7
			L446.2,36.6z"/>
		<path d="M451.5,32c-0.5-0.2-0.9-0.3-1.1-0.4c-0.3-0.1-0.5-0.1-0.6-0.1c-0.1,0-0.2,0-0.3,0.1c-0.1,0.1-0.2,0.2-0.3,0.3
			c-0.1,0.1-0.2,0.3-0.4,0.4l-0.3-0.8c0.2-0.2,0.4-0.4,0.6-0.5c0.2-0.1,0.3-0.2,0.4-0.3c0.1-0.1,0.3-0.1,0.4-0.1
			c0.2,0,0.3,0,0.6,0.1c0.2,0.1,0.5,0.2,1,0.3c0,0,0.1,0,0.4,0.1c0.5,0.2,0.8,0.3,1,0.3c0.2,0.1,0.4,0.1,0.5,0.1s0.5,0,1,0l-0.1,0.9
			l-1.3-0.1c-0.2,0.2-0.4,0.4-0.7,0.7c-0.4,0.5-0.8,0.8-1.1,1.1c-0.3,0.3-0.6,0.5-1.1,0.7c-0.4,0.2-0.9,0.3-1.5,0.3h-1.1v-0.9h1.2
			c0.5,0,0.9-0.1,1.2-0.2c0.3-0.1,0.6-0.3,0.8-0.5c0.2-0.2,0.5-0.5,0.9-0.8c0.3-0.3,0.5-0.5,0.6-0.6l0.2-0.1l-0.2,0L451.5,32z
			 M449.7,28.3l0.8,0.8l-0.8,0.8l-0.8-0.8L449.7,28.3z"/>
		<path d="M458,35c-0.2-0.1-0.3-0.3-0.3-0.6c0-0.1,0-0.3,0.1-0.5c0.1-0.2,0.2-0.7,0.4-1.2l0.2-0.6l0.5,0.1l-0.6,2l0.8,0.2l-0.3,0.9
			C458.4,35.2,458.2,35.1,458,35z"/>
		<path d="M464.9,31.5l0.8-0.3l0,0.2c0.1,0.9,0.2,1.7,0.3,2.4s0.1,1.3,0.1,1.7c0,0.4-0.2,0.8-0.6,1.1s-0.9,0.5-1.5,0.6
			c-0.5,0.1-1,0.2-1.3,0.2c-0.8,0-1.3-0.2-1.7-0.5c-0.4-0.4-0.6-0.9-0.6-1.7c0-0.2,0-0.4,0-0.6c0-0.2,0.1-0.7,0.2-1.4h0.6
			c-0.1,0.6-0.1,1-0.2,1.2s0,0.4,0,0.6c0,0.5,0.2,0.9,0.5,1.1c0.3,0.2,0.8,0.3,1.4,0.3c0.4,0,0.8-0.1,1.2-0.2
			c0.4-0.1,0.9-0.3,1.3-0.5L464.9,31.5z M462.7,30.1l0.8,0.8l-0.8,0.8l-0.8-0.8L462.7,30.1z"/>
		<path d="M467.5,28.5l0.9-0.1l0,6.9l-0.7,0L467.5,28.5z"/>
		<path d="M469,36.5c0.2,0,0.5,0.1,0.7,0.1c0.6,0,1.1-0.1,1.4-0.4c0.4-0.3,0.7-0.7,1-1.3l-0.5-3.4l0.9-0.2l0.3,3
			c0.2,0,0.4,0.1,0.6,0.1c0.2,0,0.5,0,0.7,0h0.5v0.9h-0.5c-0.6,0-1.1-0.1-1.5-0.3c-0.1,0.5-0.3,1-0.6,1.3c-0.3,0.4-0.6,0.7-0.9,0.9
			c-0.4,0.2-0.8,0.3-1.2,0.3c-0.3,0-0.6,0-0.9-0.1V36.5z"/>
		<path d="M474.1,34.4l1.5,0c0-0.5,0.1-1,0.2-1.5c0.2-0.5,0.4-1,0.7-1.5c0.3-0.5,0.8-0.8,1.3-1.1c0.3,0.3,0.5,0.6,0.7,1
			c0.2,0.4,0.3,0.7,0.4,1.1c0.1,0.4,0.2,0.7,0.2,1.1c0,0.4-0.1,0.7-0.3,0.9c-0.2,0.3-0.5,0.5-1,0.6c-0.4,0.1-0.9,0.2-1.5,0.2
			c0.1,0.3,0.2,0.5,0.5,0.8c0.2,0.2,0.5,0.4,0.8,0.5c0.3,0.1,0.7,0.2,1,0.2v-0.3c0-0.6,0.1-1.1,0.2-1.4s0.4-0.5,0.6-0.6
			s0.7-0.1,1.3-0.1h0.4v0.9h-1.9l0,2.3c-0.7,0-1.3-0.1-1.9-0.2c-0.5-0.2-0.9-0.4-1.2-0.7c-0.3-0.3-0.5-0.8-0.6-1.3l-1.6,0V34.4z
			 M477.7,34.2c0.3-0.1,0.6-0.3,0.8-0.6c0-0.4-0.1-0.8-0.3-1.2c-0.2-0.4-0.3-0.8-0.6-1.1c-0.2,0.1-0.4,0.4-0.6,0.6
			c-0.2,0.3-0.4,0.6-0.5,1s-0.2,0.9-0.2,1.4C476.9,34.4,477.4,34.4,477.7,34.2z"/>
		<path d="M480.7,34.4h3.2v0.9h-3.2V34.4z"/>
		<path d="M483.5,34.4h3.2v0.9h-3.2V34.4z"/>
		<path d="M489.6,32c0,0.6,0,1.1,0,1.5c0,0.4-0.1,0.7-0.4,1c-0.3,0.3-0.6,0.5-1.1,0.6c-0.5,0.1-0.9,0.2-1.5,0.2h-0.5v-0.9h0.5
			c0.5,0,0.9,0,1.3-0.1c0.4-0.1,0.7-0.2,1-0.4l-0.3-3.2l0.9-0.2C489.6,30.9,489.6,31.4,489.6,32z M488,28.5l0.8,0.7l-0.8,0.7
			l-0.8-0.7L488,28.5z M489.7,28.5l0.8,0.7l-0.8,0.7l-0.8-0.7L489.7,28.5z"/>
		<path d="M493.7,34.5l0.7,0.7l-0.7,0.7l-0.7-0.7L493.7,34.5z M493.7,30.3l0.7,0.7l-0.7,0.7L493,31L493.7,30.3z"/>
		<path d="M496.4,34.3c0,0.2,0,0.5,0,0.6c0,0.6,0.2,1,0.5,1.2c0.3,0.2,0.8,0.4,1.4,0.4c0.4,0,0.8-0.1,1.3-0.2
			c0.5-0.1,0.9-0.3,1.4-0.5l-0.2-4.8l0.9-0.1v3.2c0.4,0.1,0.8,0.1,1.2,0.1c0.4,0,0.8,0,1.1-0.1s0.6-0.1,0.8-0.2l0-2.8h0.7l0,2.8
			c0.2,0.1,0.5,0.2,0.9,0.3c0.4,0.1,0.7,0.1,1.1,0.1c0.2,0,0.3,0,0.3,0l-0.2-3.7l0.9-0.1v3.3c0,0.2,0,0.5-0.1,0.7
			c-0.1,0.2-0.2,0.4-0.5,0.6c-0.2,0.2-0.5,0.2-0.9,0.2c-0.3,0-0.7,0-1-0.1c-0.4-0.1-0.7-0.2-1-0.4c-0.2,0.2-0.5,0.3-1,0.4
			c-0.4,0.1-0.9,0.1-1.4,0.1c-0.4,0-0.8,0-1.1-0.1c0,0.4-0.1,0.7-0.1,0.9c-0.1,0.2-0.2,0.4-0.4,0.6s-0.4,0.3-0.8,0.4
			c-0.4,0.2-0.8,0.3-1.2,0.4c-0.4,0.1-0.8,0.1-1.1,0.1c-1.5,0-2.3-0.8-2.3-2.4c0-0.2,0-0.4,0-0.6c0-0.2,0.1-0.7,0.2-1.5h0.7
			C496.5,33.7,496.4,34.1,496.4,34.3z"/>
		<path d="M509.9,36.6c0.6,0,1.1-0.2,1.5-0.5s0.8-0.8,1-1.4l-0.5-3.5l0.9-0.2c0.1,1.4,0.2,2.5,0.2,3.4c0,0.6-0.1,1.2-0.4,1.7
			c-0.3,0.5-0.6,0.9-1,1.2c-0.4,0.3-0.9,0.4-1.5,0.4c-0.3,0-0.6,0-1-0.1v-0.9C509.4,36.6,509.7,36.6,509.9,36.6z"/>
		<path d="M518.8,31.7c0.3,0.7,0.4,1.4,0.4,2.1c0,0.6-0.3,1-0.8,1.3s-1.2,0.4-2,0.4c-0.5,0-0.9,0-1.2-0.1c-0.3-0.1-0.5-0.3-0.6-0.5
			c-0.1-0.2-0.2-0.5-0.2-1c0-0.1,0-0.3,0-0.6c0-0.2,0-0.4,0-0.6h0.7v1.6c0.3,0.1,0.7,0.2,1.2,0.2c0.4,0,0.7,0,1.1-0.1
			c0.4-0.1,0.7-0.1,0.9-0.2c0-0.7-0.1-1.3-0.4-1.9c-0.3-0.6-0.6-1.2-1.1-1.7l0.6-0.8C518.1,30.4,518.5,31,518.8,31.7z"/>
		<path d="M521.5,28.1c-0.4,0-0.8-0.1-1.2-0.2l-0.2,0.5l-0.4-0.2l0.4-1.1c0.3,0.1,0.6,0.1,0.8,0.2c0.2,0,0.5,0.1,0.8,0.1
			c0.4,0,0.8-0.1,1.3-0.2l0,0.7C522.4,28.1,521.9,28.1,521.5,28.1z M520.7,28.8l0.9-0.1l0,6.5l-0.7,0L520.7,28.8z"/>
	</g>
</g>
<g id="Layer_3">
</g>
</svg>
