<?xml version="1.0" encoding="utf-8"?>
<!-- Generator: Adobe Illustrator 27.0.1, SVG Export Plug-In . SVG Version: 6.00 Build 0)  -->
<svg version="1.1" xmlns="http://www.w3.org/2000/svg" xmlns:xlink="http://www.w3.org/1999/xlink" x="0px" y="0px"
	 viewBox="0 0 595.3 143.2" style="enable-background:new 0 0 595.3 143.2;" xml:space="preserve">
<style type="text/css">
	.st0{fill:#599191;}
	.st1{fill:#F15F61;}
	.st2{fill:#2F3C68;}
	.st3{fill:#496D54;}
	.st4{fill:#EDEDEE;}
	.st5{fill:#767679;}
	.st6{fill:#FFFFFF;}
	.st7{fill:#F15D60;}
	.st8{fill:#EB232C;}
	.st9{fill:#104879;}
	.st10{fill:#923033;}
	.st11{fill:#943134;}
	.st12{fill:#7E7F80;}
	.st13{fill:#1E4383;}
	.st14{fill:none;stroke:#1E4383;stroke-width:2;stroke-miterlimit:10;}
	.st15{fill:#1D4484;}
</style>
<g id="Layer_5">
</g>
<g id="Layer_1">
	<g>
		<rect x="42.5" y="42.5" class="st4" width="92.1" height="92.1"/>
	</g>
	<g>
		<path class="st5" d="M45.7,133.6l-0.3,0.6c-0.3,0-0.7,0.1-1,0.1c-1.1,0-1.7-0.3-1.7-1.2c0-0.8,0.4-1.4,1.5-1.9l1.2-0.6v-0.8
			l0.7-0.2v3.3c0,0.7,0.3,1,1,1h0.4c0.1,0,0.2,0.2,0.2,0.4c0,0.3-0.1,0.5-0.2,0.5h-0.4C46.5,134.6,46,134.4,45.7,133.6z M45.6,133.3
			v-2l-0.7,0.3l-1.5,0.7c0,0.1-0.1,0.3-0.1,0.3c0,0.6,0.4,0.7,1.4,0.7C45,133.3,45.3,133.3,45.6,133.3z"/>
		<path class="st5" d="M47.4,134.2c0-0.2,0.1-0.4,0.2-0.4c2.1,0,2.8-0.2,3.4-0.6c-0.1-0.4-0.4-0.8-1-1.5l-1.8-2.1l0.2-1.1l4.4-1.3
			l0,0.7l-3.9,1.2l2.1,2.3c1.4,1.6,1.9,2.1,2.9,2.2c0.2,0,0.4,0,0.6,0c0.1,0,0.2,0.2,0.2,0.4c0,0.3-0.1,0.5-0.2,0.5
			c-0.2,0-0.5,0-0.7,0c-0.9-0.1-1.5-0.5-2.2-1.3c0,0.1,0,0.2,0,0.3c-0.4,0.8-1.6,1-3.1,1.1c-0.2,0-0.5,0-0.7,0
			C47.5,134.6,47.4,134.4,47.4,134.2z"/>
		<path class="st5" d="M54.1,134.2c0-0.2,0.1-0.4,0.2-0.4h0.8c0.8,0,1.3-0.2,1.4-0.7l0.3-1.3l0.1-0.1l0.5,0.1l-0.2,1.1
			c-0.1,0.4,0.3,0.8,1,0.8h0.4c0.1,0,0.2,0.2,0.2,0.4c0,0.3-0.1,0.5-0.2,0.5h-0.4c-0.7,0-1.2-0.3-1.4-0.7c-0.4,0.6-0.9,0.7-1.7,0.7
			h-0.8C54.2,134.6,54.1,134.4,54.1,134.2z M55.4,130.2V130l0.3-0.7l0.9,0.4v0.1l-0.3,0.7L55.4,130.2z"/>
		<path class="st5" d="M58.3,134.2c0-0.2,0.1-0.4,0.2-0.4c1.1,0,2-0.2,2.4-0.6l-0.3-2.1l0.7-0.4l0.1,0c0.1,1,0.2,1.7,0.2,2.1
			c0,0.6-0.3,1-0.7,1.3c-0.6,0.4-1.6,0.5-2.4,0.5C58.4,134.6,58.3,134.4,58.3,134.2z M58.6,136.7v-0.1l0.3-0.7l0.8,0.4v0.1l-0.3,0.7
			L58.6,136.7z M59.7,137.9v-0.1l0.3-0.7l0.8,0.4v0.1l-0.3,0.7L59.7,137.9z M60.3,136.6v-0.1l0.3-0.7l0.8,0.4v0.1l-0.3,0.7
			L60.3,136.6z"/>
		<path class="st5" d="M64.9,134.9c0-0.7,0.3-1.6,0.4-2.2l0.4,0l0.1,0.1c-0.1,0.5-0.3,1.3-0.3,1.9c-0.1,1.2,0.6,1.5,1.8,1.5
			c1.3,0,2.4-0.5,2.9-0.8l-2.3-0.9l0-0.1l0.3-0.7h3.2c0.1,0,0.2,0.2,0.2,0.4c0,0.3-0.1,0.5-0.2,0.5h-1c-0.4,0-0.8-0.2-1.1-0.3l0,0
			c0.4,0.1,1,0.3,1.2,0.5c0.6,0.3,0.4,1-0.1,1.3c-0.6,0.4-1.7,0.9-3.3,0.9C65.7,137.1,64.8,136.5,64.9,134.9z"/>
		<path class="st5" d="M71.2,134.2c0-0.2,0.1-0.4,0.2-0.4h0.8c0.8,0,1.3-0.2,1.4-0.7l0.3-1.3l0.1-0.1l0.5,0.1l-0.2,1.1
			c-0.1,0.4,0.3,0.8,1,0.8h0.4c0.1,0,0.2,0.2,0.2,0.4c0,0.3-0.1,0.5-0.2,0.5h-0.4c-0.7,0-1.2-0.3-1.4-0.7c-0.4,0.6-0.9,0.7-1.7,0.7
			h-0.8C71.3,134.6,71.2,134.4,71.2,134.2z M72,130.1v-0.1l0.3-0.7l0.8,0.4v0.1l-0.3,0.6L72,130.1z M73.6,130v-0.1l0.3-0.7l0.8,0.4
			v0.1l-0.3,0.6L73.6,130z"/>
		<path class="st5" d="M75.4,134.2c0-0.2,0.1-0.4,0.2-0.4c1.1,0,2-0.2,2.4-0.6l-0.3-2.1l0.7-0.4l0.1,0c0.1,1,0.2,1.7,0.2,2.1
			c0,0.6-0.3,1-0.7,1.3c-0.6,0.4-1.6,0.5-2.4,0.5C75.5,134.6,75.4,134.4,75.4,134.2z M76.9,129.3v-0.1l0.3-0.7l0.9,0.4v0.1l-0.3,0.7
			L76.9,129.3z"/>
		<path class="st5" d="M77.9,137l-0.2-0.6l0-0.1c0.3,0.1,0.8,0.1,1.1,0.1c1.2-0.1,1.9-1.2,2-1.9c0-0.5-0.2-1.3-0.4-2.8l0.6-0.4
			l0.1,0.1c0.1,0.4,0.1,0.8,0.2,1.3c0.1,0.8,0.4,1.1,1.2,1.1h0.3c0.1,0,0.2,0.2,0.2,0.4c0,0.3-0.1,0.5-0.2,0.5h-0.3
			c-0.4,0-0.8-0.1-1-0.3v0.1c0,1.6-1.3,2.8-2.3,2.9C78.9,137.3,78.1,137.1,77.9,137z"/>
		<path class="st5" d="M82.6,134.2c0-0.2,0.1-0.4,0.2-0.4h0.8c0.8,0,1.3-0.2,1.4-0.7l0.3-1.3l0.1-0.1l0.5,0.1l-0.2,1.1
			c-0.1,0.4,0.3,0.8,1,0.8H87c0.1,0,0.2,0.2,0.2,0.4c0,0.3-0.1,0.5-0.2,0.5h-0.4c-0.7,0-1.2-0.3-1.4-0.7c-0.4,0.6-0.9,0.7-1.7,0.7
			h-0.8C82.7,134.6,82.6,134.4,82.6,134.2z M83.4,130.1v-0.1l0.3-0.7l0.8,0.4v0.1l-0.3,0.6L83.4,130.1z M85,130v-0.1l0.3-0.7
			l0.8,0.4v0.1l-0.3,0.6L85,130z"/>
		<path class="st5" d="M86.8,134.2c0-0.2,0.1-0.4,0.2-0.4h0.8c0.8,0,1.3-0.2,1.4-0.7l0.3-1.3l0.1-0.1l0.5,0.1l-0.2,1.1
			c-0.1,0.4,0.3,0.8,1,0.8h0.4c0.1,0,0.2,0.2,0.2,0.4c0,0.3-0.1,0.5-0.2,0.5h-0.4c-0.7,0-1.2-0.3-1.4-0.7c-0.4,0.6-0.9,0.7-1.7,0.7
			H87C86.9,134.6,86.8,134.4,86.8,134.2z M88.2,130.2V130l0.3-0.7l0.9,0.4v0.1l-0.3,0.7L88.2,130.2z"/>
		<path class="st5" d="M91,134.2c0-0.2,0.1-0.4,0.2-0.4c1.1,0,2-0.2,2.4-0.6l-0.3-2.1l0.7-0.4l0.1,0c0.1,1,0.2,1.7,0.2,2.1
			c0,0.6-0.3,1-0.7,1.3c-0.6,0.4-1.6,0.5-2.4,0.5C91.1,134.6,91,134.4,91,134.2z M91.3,136.7v-0.1l0.3-0.7l0.8,0.4v0.1l-0.3,0.7
			L91.3,136.7z M92.8,136.6v-0.1l0.3-0.7l0.8,0.4v0.1l-0.3,0.7L92.8,136.6z"/>
		<path class="st5" d="M95.7,134.7c0.1-0.9,0.1-1.5,0.1-2.1l0-5.2l0.7-0.2v5.2c0,1-0.1,1.4-0.3,2.2L95.7,134.7L95.7,134.7z"/>
		<path class="st5" d="M99.9,133.5c0-0.6,0.2-1.2,1.1-2.5l-0.5-0.4l0.3-0.7l0.1,0l1,0.8c1,0.8,1.6,1.4,1.6,2.3c0,1.2-1,1.8-2.1,1.8
			C100.6,134.7,99.9,134.4,99.9,133.5z M103.1,133.1c-0.2-0.4-0.6-0.9-1.7-1.8c-0.7,1-0.9,1.5-0.9,1.9c0,0.4,0.4,0.7,1.1,0.7
			C102.2,133.9,102.8,133.7,103.1,133.1z"/>
		<path class="st5" d="M105,132.9l-0.1-5.5l0.7-0.2v5.4c0,1,0.4,1.1,1.3,1.1c1,0,1.8-0.2,2.3-0.6c-0.1-0.4-0.4-0.8-1-1.5l-1.9-2.1
			l0.2-1.1l4.4-1.3l0,0.7l-3.9,1.2l2.1,2.3c1.6,1.8,2,2.2,3.3,2.3h0.2c0.1,0,0.2,0.2,0.2,0.4c0,0.3-0.1,0.5-0.2,0.5h-0.3
			c-1.2,0-1.9-0.4-2.6-1.4c0,0.2-0.1,0.4-0.3,0.6c-0.6,0.7-1.8,0.8-2.5,0.8C105.6,134.6,105,134.1,105,132.9z M106.7,127.2l2.7-0.8
			l0,0.7l-2.8,0.8L106.7,127.2z"/>
		<path class="st5" d="M112.3,134.2c0-0.2,0.1-0.4,0.2-0.4h0.4c0.9,0,1.3-0.2,1.5-0.9l0.4-1.1l0.1,0l0.4,0.2l-0.3,1l-0.1,0.3
			c0.2,0.3,0.7,0.5,1.4,0.5c1.1,0,1.4-0.3,1.4-0.9l0-0.7l0.6,0v1.4c0.2,0.1,0.6,0.2,0.9,0.2c0.3,0,0.5-0.1,0.7-0.2l-0.3-2.3l0.7-0.4
			l0.1,0c0.1,0.6,0.1,1.1,0.2,1.6c0.1,0.6,0.1,1.1-0.1,1.5c-0.2,0.5-0.8,0.8-1.4,0.8c-0.5,0-1-0.2-1.2-0.5c-0.3,0.3-0.9,0.5-1.5,0.5
			c-0.9,0-1.5-0.3-1.7-0.7c-0.3,0.5-0.9,0.7-1.6,0.7h-0.4C112.4,134.6,112.3,134.4,112.3,134.2z M116.3,130.3v-0.1l0.3-0.7l0.8,0.4
			v0.1l-0.3,0.7L116.3,130.3z M116.9,129.1v-0.1l0.3-0.7l0.8,0.4v0.1l-0.3,0.7L116.9,129.1z M118,130.2v-0.1l0.3-0.7l0.8,0.4v0.1
			l-0.3,0.7L118,130.2z"/>
		<path class="st5" d="M121.7,137l-0.2-0.6l0-0.1c0.4,0.1,1,0.1,1.2,0.1c1.1-0.1,1.9-1.2,2.1-2c-0.7,0.2-1.3,0.2-1.7,0.2
			c-0.7,0-1.2-0.3-1.2-1.1c0-0.1,0-0.1,0-0.2c0.1-1.6,0.7-2.4,1.6-2.4c0.8,0,1.2,0.4,1.4,0.9c0.2,0.4,0.5,1.4,0.5,2.1
			c0,1.9-1.4,3.3-2.4,3.4C122.8,137.3,122.1,137.1,121.7,137z M124.9,133.7c-0.1-0.7-0.3-1.4-0.5-1.8c-0.3-0.1-0.5-0.2-0.8-0.2
			c-0.6,0-0.9,0.2-1,1.4c0,0.1,0,0.1,0,0.2c0,0.4,0.2,0.5,0.8,0.5C123.9,133.8,124.3,133.7,124.9,133.7z"/>
		<path class="st5" d="M125.5,137l-0.2-0.6l0-0.1c0.3,0.1,0.8,0.1,1.1,0.1c1.2-0.1,1.9-1.2,2-1.9c0-0.5-0.2-1.3-0.4-2.8l0.6-0.4
			l0.1,0.1c0.1,0.4,0.1,0.8,0.2,1.3c0.1,0.8,0.4,1.1,1.2,1.1h0.3c0.1,0,0.2,0.2,0.2,0.4c0,0.3-0.1,0.5-0.2,0.5h-0.3
			c-0.4,0-0.8-0.1-1-0.3v0.1c0,1.6-1.3,2.8-2.3,2.9C126.5,137.3,125.8,137.1,125.5,137z"/>
		<path class="st5" d="M130.3,134.2c0-0.2,0.1-0.4,0.2-0.4h0.3c1.3,0,2.2-0.1,2.8-0.5c0.1-0.3,0.1-0.6,0.1-0.9
			c-0.6,0.2-1.2,0.2-1.6,0.2c-0.8,0-1.2-0.3-1.2-1c0-0.1,0-0.2,0-0.3c0.2-1.6,0.7-2.4,1.6-2.4c0.8,0,1.2,0.4,1.4,0.9
			c0.3,0.5,0.4,1.4,0.5,2.2c0,0.9-0.2,1.7-0.6,2.1c-0.6,0.5-1.9,0.7-2.8,0.7h-0.4C130.4,134.6,130.3,134.4,130.3,134.2z
			 M133.6,131.6c-0.1-0.7-0.3-1.4-0.4-1.8c-0.3-0.1-0.5-0.2-0.8-0.2c-0.5,0-0.9,0.2-1,1.4c0,0.1,0,0.1,0,0.2c0,0.4,0.3,0.5,0.8,0.5
			C132.7,131.7,133.1,131.7,133.6,131.6z M131.8,127.5v-0.1l0.3-0.7l0.9,0.4v0.1l-0.3,0.7L131.8,127.5z"/>
	</g>
	<g>
		<g>
			<path class="st0" d="M141,70.5v11.5c0,8.8-7.2,16-16,16h-19.7c2.9-1.1,5.4-2.9,7.3-5.2H125c5.9,0,10.8-4.8,10.8-10.8V70.5
				c0-1.4,1.2-2.6,2.6-2.6S141,69.1,141,70.5z M115.1,51.6H91.9c-8.8,0-16,7.2-16,16v11.5c0,1.4,1.2,2.6,2.6,2.6
				c1.4,0,2.6-1.2,2.6-2.6V67.6c0-5.9,4.8-10.8,10.8-10.8h23.2c1.4,0,2.6-1.2,2.6-2.6C117.7,52.7,116.5,51.6,115.1,51.6z
				 M112.8,67.9c-1.4,0-2.6,1.2-2.6,2.6v11.5c0,4.3-2.5,8-6.2,9.7c-0.4,0.2-0.9,0.4-1.3,0.5c-0.8,0.3-1.7,0.4-2.6,0.5h0
				c-0.2,0-0.4,0-0.7,0H87c-1.9,2.3-4.4,4.2-7.3,5.2h19.7c0.2,0,0.4,0,0.6,0h0c0.4,0,0.7,0,1.1-0.1c4-0.4,7.6-2.3,10.1-5.1
				c0.2-0.2,0.3-0.3,0.5-0.5c0.1-0.2,0.3-0.3,0.4-0.5c2.1-2.7,3.3-6.1,3.3-9.7V70.5C115.4,69.1,114.2,67.9,112.8,67.9z M87.2,67.9
				c-1.4,0-2.6,1.2-2.6,2.6v11.5c0,4.3-2.5,8-6.2,9.7c-0.4,0.2-0.9,0.4-1.3,0.5c-0.8,0.3-1.7,0.4-2.6,0.5h0c-0.2,0-0.4,0-0.7,0h-9
				c-1.9,2.3-4.4,4.2-7.3,5.2h16.4c0.2,0,0.4,0,0.6,0h0c0.4,0,0.7,0,1.1-0.1c4-0.4,7.6-2.3,10.1-5.1c0.2-0.2,0.3-0.3,0.5-0.5
				c0.1-0.2,0.3-0.3,0.4-0.5c2.1-2.7,3.3-6.1,3.3-9.7V70.5C89.8,69.1,88.6,67.9,87.2,67.9z M65.5,68c-0.2,0-0.3-0.1-0.5-0.1H52.1
				c-8.8,0-16,7.2-16,16v11.5c0,1.4,1.2,2.6,2.6,2.6c1.4,0,2.6-1.2,2.6-2.6V83.9c0-5.9,4.8-10.8,10.8-10.8h10.2v8.9
				c0,4.3-2.5,8-6.2,9.7c-0.4,0.2-0.9,0.4-1.3,0.5c-1,0.3-2.2,0.5-3.3,0.5c-1.4,0-2.6,1.2-2.6,2.6c0,1.4,1.2,2.6,2.6,2.6
				c4.7,0,8.9-2,11.8-5.2c0.2-0.2,0.3-0.3,0.5-0.5c0.1-0.2,0.3-0.3,0.4-0.5c2.1-2.7,3.3-6.1,3.3-9.7V70.5
				C67.6,69.3,66.7,68.2,65.5,68z M124,105.4h-14.3c-1.4,0-2.6,1.2-2.6,2.6c0,1.4,1.2,2.6,2.6,2.6H124c1.4,0,2.6-1.2,2.6-2.6
				C126.7,106.6,125.5,105.4,124,105.4z M114,112.4h-3.9c-1.4,0-2.6,1.2-2.6,2.6c0,1.4,1.2,2.6,2.6,2.6h3.9c1.4,0,2.6-1.2,2.6-2.6
				C116.6,113.6,115.4,112.4,114,112.4z"/>
		</g>
		<g>
			<g>
				<g>
					<path class="st1" d="M105.3,66.1c0,1.4-1.2,2.6-2.6,2.6h-3.9c-1.4,0-2.6-1.2-2.6-2.6c0-1.4,1.2-2.6,2.6-2.6h3.9
						C104.1,63.5,105.3,64.7,105.3,66.1z"/>
				</g>
			</g>
		</g>
	</g>
</g>
<g id="Layer_4">
</g>
<g id="Layer_3">
</g>
</svg>
